<svg id="svg" version="1.1" xmlns="http://www.w3.org/2000/svg" xmlns:xlink="http://www.w3.org/1999/xlink" width="400" height="108.28125" viewBox="0, 0, 400,108.28125"><g id="svgg"><path id="path0" d="M-0.000 53.995 L -0.000 107.993 0.708 107.902 C 1.596 107.788,2.415 107.686,3.167 107.598 C 3.487 107.560,3.938 107.484,4.167 107.429 C 4.696 107.301,5.322 107.217,6.765 107.078 C 7.399 107.017,7.954 106.913,8.000 106.848 C 8.077 106.740,9.088 106.632,10.208 106.614 C 10.460 106.609,10.667 106.552,10.667 106.487 C 10.667 106.421,10.967 106.378,11.333 106.392 C 11.700 106.406,12.000 106.376,12.000 106.327 C 12.000 106.278,12.131 106.234,12.292 106.230 C 12.714 106.218,14.821 106.015,15.476 105.923 C 15.783 105.880,16.308 105.829,16.642 105.809 L 17.250 105.773 17.221 76.262 C 17.192 46.304,17.210 45.351,17.735 48.248 C 17.780 48.494,17.895 48.790,17.990 48.905 C 18.086 49.020,18.114 49.163,18.054 49.224 C 17.994 49.284,18.013 49.333,18.097 49.333 C 18.181 49.334,18.261 49.531,18.275 49.772 C 18.289 50.013,18.393 50.267,18.505 50.336 C 18.617 50.406,18.666 50.533,18.613 50.618 C 18.560 50.704,18.613 50.958,18.729 51.183 C 18.846 51.408,18.911 51.684,18.874 51.796 C 18.836 51.908,18.877 52.000,18.965 52.000 C 19.112 52.000,19.408 52.916,19.356 53.208 C 19.343 53.277,19.413 53.333,19.510 53.333 C 19.607 53.333,19.644 53.402,19.592 53.485 C 19.541 53.569,19.735 54.225,20.024 54.944 C 20.314 55.662,20.552 56.344,20.553 56.458 C 20.554 56.573,20.623 56.667,20.705 56.667 C 20.787 56.667,20.833 56.798,20.806 56.958 C 20.780 57.119,20.824 57.355,20.904 57.482 C 20.984 57.610,21.076 57.943,21.108 58.223 C 21.141 58.502,21.233 58.773,21.313 58.824 C 21.393 58.875,21.514 59.179,21.582 59.500 C 21.651 59.821,21.807 60.280,21.930 60.521 C 22.053 60.761,22.102 61.009,22.040 61.071 C 21.977 61.134,21.999 61.237,22.088 61.301 C 22.291 61.446,22.677 62.423,22.792 63.083 C 22.840 63.358,22.930 63.621,22.993 63.667 C 23.135 63.771,23.691 65.167,23.590 65.167 C 23.550 65.167,23.627 65.429,23.760 65.749 C 23.894 66.070,24.003 66.370,24.002 66.416 C 24.001 66.462,24.006 66.519,24.014 66.542 C 24.021 66.565,24.063 66.800,24.106 67.066 C 24.149 67.331,24.320 67.819,24.485 68.149 C 24.747 68.672,24.953 69.280,25.092 69.937 C 25.113 70.040,25.261 70.398,25.420 70.733 C 25.578 71.067,25.708 71.525,25.708 71.751 C 25.708 71.976,25.767 72.124,25.839 72.080 C 25.911 72.035,26.021 72.299,26.083 72.666 C 26.145 73.033,26.269 73.333,26.358 73.333 C 26.447 73.333,26.473 73.408,26.417 73.500 C 26.360 73.592,26.386 73.667,26.475 73.667 C 26.563 73.667,26.600 73.803,26.556 73.970 C 26.513 74.137,26.590 74.367,26.729 74.482 C 26.867 74.597,26.941 74.794,26.892 74.920 C 26.844 75.046,26.916 75.360,27.052 75.616 C 27.188 75.873,27.395 76.421,27.513 76.833 C 27.631 77.246,27.778 77.658,27.840 77.750 C 28.001 77.986,28.229 78.862,28.219 79.208 C 28.214 79.369,28.266 79.500,28.333 79.500 C 28.401 79.500,28.558 79.856,28.683 80.292 C 28.807 80.727,28.921 81.121,28.935 81.167 C 29.147 81.834,29.223 82.000,29.317 82.000 C 29.416 82.000,29.482 82.284,29.538 82.958 C 29.548 83.073,29.622 83.167,29.704 83.167 C 29.786 83.167,29.820 83.223,29.779 83.292 C 29.739 83.360,29.783 83.604,29.878 83.833 C 29.972 84.063,30.078 84.398,30.113 84.580 C 30.148 84.761,30.249 84.982,30.338 85.071 C 30.427 85.160,30.500 85.400,30.500 85.603 C 30.500 85.806,30.571 85.997,30.658 86.028 C 30.745 86.058,30.860 86.337,30.914 86.648 C 30.968 86.958,31.088 87.352,31.179 87.523 C 31.270 87.694,31.296 87.833,31.235 87.833 C 31.175 87.833,31.229 87.957,31.355 88.109 C 31.480 88.261,31.565 88.411,31.542 88.442 C 31.420 88.611,31.533 89.009,31.770 89.246 C 31.918 89.394,32.004 89.552,31.960 89.596 C 31.915 89.640,32.172 90.518,32.529 91.546 C 32.887 92.575,33.218 93.602,33.266 93.829 C 33.314 94.056,33.540 94.612,33.767 95.065 C 33.995 95.518,34.143 95.989,34.096 96.111 C 34.049 96.233,34.073 96.333,34.149 96.333 C 34.225 96.333,34.383 96.783,34.500 97.333 C 34.617 97.883,34.764 98.333,34.828 98.333 C 34.892 98.333,34.944 98.438,34.944 98.565 C 34.944 98.692,35.077 99.077,35.240 99.419 C 35.403 99.762,35.559 100.164,35.588 100.313 C 35.617 100.462,35.652 100.583,35.666 100.583 C 35.680 100.583,35.721 100.742,35.758 100.936 C 35.794 101.129,35.913 101.504,36.022 101.769 C 36.131 102.034,36.208 102.306,36.194 102.375 C 36.179 102.444,36.245 102.500,36.341 102.500 C 36.436 102.500,36.502 102.594,36.488 102.708 C 36.406 103.334,36.477 103.347,38.417 103.065 C 38.783 103.012,39.556 102.940,40.134 102.905 C 40.712 102.870,41.260 102.796,41.352 102.739 C 41.531 102.628,42.711 102.505,44.125 102.450 C 44.606 102.432,45.000 102.377,45.000 102.328 C 45.000 102.279,45.244 102.232,45.542 102.222 C 45.840 102.213,46.496 102.164,47.000 102.114 C 47.504 102.063,48.367 101.980,48.917 101.928 C 49.467 101.876,50.292 101.789,50.750 101.733 C 51.208 101.677,51.716 101.635,51.879 101.639 C 52.041 101.643,52.137 101.587,52.092 101.514 C 52.047 101.441,52.214 101.376,52.463 101.369 C 52.713 101.363,53.217 101.325,53.583 101.285 C 53.950 101.246,54.419 101.203,54.625 101.190 L 55.000 101.167 55.000 50.583 L 55.000 0.000 46.500 0.000 L 38.001 0.000 37.959 30.458 C 37.914 62.674,37.920 62.452,37.244 59.293 C 37.180 58.995,37.058 58.663,36.972 58.556 C 36.887 58.449,36.778 58.151,36.731 57.893 C 36.685 57.635,36.557 57.367,36.448 57.298 C 36.339 57.228,36.315 57.171,36.395 57.169 C 36.475 57.168,36.457 57.066,36.355 56.943 C 36.253 56.820,36.217 56.672,36.275 56.614 C 36.333 56.556,36.286 56.394,36.170 56.254 C 36.054 56.114,36.015 56.000,36.083 56.000 C 36.152 56.000,36.130 55.906,36.035 55.792 C 35.939 55.677,35.861 55.546,35.859 55.500 C 35.858 55.454,35.771 55.192,35.666 54.917 C 35.561 54.642,35.434 54.209,35.383 53.955 C 35.332 53.701,35.225 53.453,35.145 53.403 C 35.065 53.354,35.000 53.210,35.000 53.084 C 35.000 52.958,34.913 52.644,34.806 52.386 C 34.494 51.630,33.657 49.283,33.555 48.875 C 33.503 48.669,33.387 48.500,33.296 48.500 C 33.205 48.500,33.172 48.392,33.223 48.261 C 33.273 48.129,33.243 47.998,33.155 47.968 C 33.067 47.939,32.966 47.690,32.931 47.416 C 32.896 47.141,32.754 46.654,32.615 46.333 C 32.475 46.012,32.196 45.225,31.994 44.583 C 31.792 43.942,31.550 43.321,31.456 43.204 C 31.362 43.088,31.331 42.947,31.385 42.892 C 31.440 42.838,31.300 42.427,31.073 41.980 C 30.846 41.533,30.709 41.167,30.768 41.167 C 30.826 41.167,30.791 41.066,30.689 40.943 C 30.586 40.820,30.552 40.670,30.613 40.610 C 30.673 40.549,30.651 40.500,30.564 40.500 C 30.477 40.500,30.390 40.301,30.369 40.059 C 30.349 39.816,30.259 39.528,30.168 39.418 C 30.077 39.309,30.052 39.170,30.113 39.110 C 30.173 39.049,30.135 39.000,30.028 39.000 C 29.921 39.000,29.833 38.846,29.833 38.659 C 29.833 38.471,29.683 38.007,29.500 37.627 C 29.317 37.248,29.167 36.803,29.167 36.639 C 29.167 36.475,29.021 36.101,28.842 35.807 C 28.663 35.514,28.555 35.212,28.602 35.137 C 28.648 35.062,28.602 35.000,28.500 35.000 C 28.398 35.000,28.358 34.928,28.412 34.841 C 28.466 34.753,28.382 34.397,28.224 34.049 C 28.066 33.701,27.925 33.342,27.911 33.250 C 27.870 32.994,27.498 32.023,27.156 31.282 C 27.058 31.071,27.000 30.827,27.026 30.741 C 27.053 30.654,26.950 30.396,26.798 30.167 C 26.646 29.938,26.498 29.525,26.469 29.250 C 26.440 28.975,26.349 28.701,26.266 28.641 C 26.183 28.581,26.093 28.325,26.066 28.073 C 26.039 27.820,25.919 27.552,25.800 27.476 C 25.681 27.400,25.632 27.337,25.691 27.336 C 25.804 27.333,25.293 25.572,25.029 25.052 C 24.702 24.409,24.133 22.905,24.127 22.667 C 24.124 22.529,24.046 22.321,23.954 22.204 C 23.861 22.088,23.831 21.947,23.886 21.892 C 23.941 21.837,23.824 21.483,23.626 21.104 C 23.429 20.726,23.285 20.323,23.307 20.208 C 23.330 20.094,23.257 20.000,23.146 20.000 C 23.035 20.000,22.986 19.958,23.038 19.907 C 23.089 19.856,22.982 19.424,22.801 18.949 C 22.620 18.473,22.410 17.838,22.336 17.538 C 22.261 17.238,22.077 16.804,21.926 16.575 C 21.776 16.345,21.637 15.934,21.618 15.662 C 21.599 15.390,21.527 15.167,21.458 15.167 C 21.390 15.167,21.333 15.033,21.333 14.870 C 21.333 14.707,21.208 14.395,21.055 14.176 C 20.901 13.957,20.866 13.834,20.975 13.901 C 21.085 13.969,21.028 13.764,20.849 13.445 C 20.670 13.126,20.568 12.821,20.623 12.766 C 20.678 12.711,20.630 12.667,20.518 12.667 C 20.406 12.667,20.362 12.588,20.421 12.493 C 20.480 12.397,20.445 12.217,20.342 12.094 C 20.239 11.970,20.169 11.804,20.187 11.726 C 20.204 11.647,20.044 11.208,19.830 10.750 C 19.616 10.292,19.450 9.785,19.460 9.625 C 19.471 9.465,19.425 9.333,19.359 9.333 C 19.293 9.333,19.224 9.142,19.204 8.908 C 19.185 8.674,19.077 8.318,18.966 8.116 C 18.854 7.915,18.778 7.694,18.798 7.625 C 18.817 7.556,18.771 7.500,18.694 7.500 C 18.618 7.500,18.547 7.406,18.538 7.292 C 18.516 7.043,18.423 6.690,18.275 6.292 C 18.215 6.131,18.118 5.869,18.058 5.708 C 17.998 5.548,17.919 5.237,17.882 5.018 C 17.845 4.798,17.669 4.332,17.491 3.982 C 17.313 3.633,17.167 3.265,17.167 3.164 C 17.167 3.064,17.010 2.637,16.818 2.216 C 16.626 1.795,16.434 1.257,16.391 1.020 C 16.348 0.784,16.236 0.543,16.142 0.485 C 16.048 0.427,15.997 0.313,16.027 0.231 C 16.059 0.147,12.639 0.065,8.042 0.040 L -0.000 -0.003 -0.000 53.995 M71.459 49.811 L 71.417 99.622 72.833 99.573 C 73.612 99.546,74.250 99.511,74.250 99.495 C 74.250 99.479,74.625 99.438,75.083 99.404 C 75.542 99.369,76.329 99.304,76.833 99.260 C 77.337 99.215,78.313 99.138,79.000 99.090 C 81.667 98.901,82.625 98.832,83.750 98.746 C 84.392 98.697,85.067 98.651,85.250 98.643 C 85.433 98.635,86.221 98.565,87.000 98.487 C 87.779 98.409,89.017 98.304,89.750 98.255 C 90.483 98.206,91.496 98.123,92.000 98.072 C 92.504 98.020,93.367 97.949,93.917 97.913 C 94.467 97.877,95.629 97.797,96.500 97.735 C 97.371 97.673,98.395 97.613,98.775 97.603 C 99.156 97.592,99.433 97.527,99.391 97.458 C 99.267 97.257,99.581 97.315,99.800 97.533 C 99.910 97.643,100.000 97.659,100.000 97.568 C 100.000 97.476,100.356 97.390,100.792 97.375 C 101.227 97.360,102.146 97.304,102.833 97.250 C 103.521 97.196,104.327 97.151,104.625 97.150 C 104.923 97.148,105.167 97.095,105.167 97.032 C 105.167 96.969,105.584 96.921,106.094 96.926 C 106.603 96.931,107.058 96.875,107.103 96.801 C 107.149 96.727,107.261 96.667,107.353 96.667 C 107.445 96.667,107.473 96.742,107.417 96.833 C 107.360 96.925,107.435 97.000,107.583 97.000 C 107.732 97.000,107.819 96.944,107.776 96.875 C 107.734 96.806,108.161 96.730,108.725 96.707 C 110.524 96.630,112.083 96.534,112.083 96.499 C 112.083 96.481,112.458 96.440,112.917 96.409 C 113.375 96.378,114.313 96.308,115.000 96.253 C 115.688 96.198,116.662 96.129,117.167 96.099 L 118.083 96.046 118.127 87.921 C 118.166 80.456,118.148 79.805,117.897 79.901 C 117.747 79.959,117.528 79.926,117.410 79.828 C 117.293 79.730,117.159 79.710,117.114 79.784 C 117.069 79.857,116.106 79.910,114.974 79.903 C 113.668 79.894,112.872 79.955,112.794 80.069 C 112.712 80.190,112.671 80.178,112.669 80.032 C 112.668 79.911,112.582 79.866,112.476 79.931 C 112.372 79.996,111.978 80.066,111.601 80.087 C 111.225 80.107,110.773 80.184,110.598 80.257 C 110.356 80.358,110.312 80.337,110.415 80.169 C 110.511 80.014,110.488 79.988,110.336 80.081 C 110.218 80.155,109.587 80.226,108.934 80.239 C 108.281 80.253,107.660 80.318,107.554 80.383 C 107.448 80.449,107.335 80.422,107.302 80.324 C 107.262 80.203,107.107 80.197,106.822 80.306 C 106.591 80.394,106.049 80.441,105.618 80.412 C 105.186 80.382,104.833 80.408,104.833 80.470 C 104.833 80.532,104.196 80.578,103.417 80.571 C 102.638 80.564,102.000 80.601,102.000 80.654 C 102.000 80.707,101.531 80.760,100.958 80.773 C 100.385 80.785,99.204 80.845,98.333 80.905 C 97.462 80.965,96.300 81.041,95.750 81.073 C 93.580 81.200,91.573 81.360,91.375 81.423 C 91.260 81.460,91.167 81.417,91.167 81.328 C 91.167 81.239,91.087 81.167,90.990 81.167 C 90.893 81.167,90.860 81.242,90.917 81.333 C 90.979 81.434,90.734 81.507,90.302 81.519 C 89.907 81.529,89.300 81.548,88.954 81.560 L 88.325 81.583 88.331 69.095 C 88.335 62.227,88.366 56.579,88.400 56.544 C 88.585 56.360,95.238 56.174,103.375 56.127 L 110.832 56.083 110.833 47.708 L 110.833 39.333 110.375 39.316 C 109.448 39.282,102.472 39.357,98.750 39.441 C 96.642 39.488,94.842 39.515,94.750 39.500 C 93.997 39.380,91.583 39.334,91.361 39.437 C 91.208 39.508,90.465 39.570,89.708 39.574 L 88.334 39.583 88.333 28.207 L 88.333 16.830 103.250 16.873 L 118.167 16.917 118.167 8.458 L 118.167 0.000 94.834 0.000 L 71.501 0.000 71.459 49.811 M129.000 8.417 L 129.000 16.833 137.750 16.833 L 146.499 16.833 146.541 55.792 L 146.583 94.750 147.525 94.750 C 148.043 94.750,148.431 94.691,148.387 94.619 C 148.299 94.476,149.058 94.580,149.331 94.748 C 149.424 94.806,149.500 94.764,149.500 94.656 C 149.500 94.510,149.558 94.507,149.724 94.645 C 149.847 94.747,149.999 94.779,150.061 94.717 C 150.124 94.654,152.179 94.590,154.629 94.574 C 157.079 94.558,160.058 94.535,161.250 94.523 L 163.417 94.500 163.371 56.042 C 163.346 34.890,163.366 17.415,163.416 17.208 L 163.506 16.833 172.170 16.833 L 180.833 16.833 180.833 8.417 L 180.833 0.000 154.917 0.000 L 129.000 0.000 129.000 8.417 M191.833 46.792 L 191.833 93.583 200.085 93.539 L 208.336 93.494 208.293 74.414 L 208.250 55.333 219.782 55.333 C 226.198 55.333,231.354 55.269,231.404 55.187 C 231.453 55.107,231.498 51.301,231.503 46.729 L 231.512 38.417 219.920 38.374 L 208.329 38.331 208.336 27.582 L 208.343 16.833 223.755 16.833 L 239.167 16.833 239.167 8.417 L 239.167 0.000 215.500 0.000 L 191.833 0.000 191.833 46.792 M249.708 47.375 L 249.750 94.750 251.750 94.790 C 252.850 94.812,254.800 94.870,256.083 94.918 C 257.367 94.967,259.467 95.037,260.750 95.074 C 263.760 95.160,267.423 95.327,268.167 95.411 C 268.487 95.447,269.837 95.520,271.167 95.573 C 272.496 95.626,274.108 95.703,274.750 95.743 C 275.392 95.784,276.779 95.859,277.833 95.910 C 278.887 95.961,280.125 96.041,280.583 96.087 C 281.042 96.134,282.317 96.213,283.417 96.263 C 285.984 96.381,287.580 96.479,288.417 96.571 C 288.783 96.612,289.983 96.692,291.083 96.750 C 292.183 96.808,293.383 96.877,293.750 96.903 C 294.117 96.929,294.585 96.916,294.792 96.874 L 295.167 96.797 295.167 88.583 C 295.167 81.313,295.137 80.358,294.908 80.270 C 294.732 80.202,294.689 80.237,294.773 80.377 C 294.868 80.534,294.840 80.539,294.657 80.398 C 294.525 80.296,294.020 80.228,293.535 80.246 C 293.050 80.264,292.612 80.213,292.562 80.131 C 292.511 80.050,292.365 80.072,292.235 80.179 C 292.106 80.286,292.000 80.304,292.000 80.217 C 292.000 80.131,291.587 80.068,291.083 80.078 C 290.579 80.088,290.167 80.052,290.167 79.998 C 290.167 79.943,289.210 79.882,288.042 79.861 C 285.215 79.810,284.833 79.783,284.833 79.634 C 284.833 79.565,284.646 79.580,284.417 79.667 C 284.188 79.754,284.000 79.771,284.000 79.704 C 284.000 79.638,283.344 79.576,282.542 79.566 C 281.740 79.557,280.408 79.495,279.583 79.428 C 277.356 79.248,273.160 79.049,269.625 78.955 C 268.823 78.934,268.167 78.860,268.167 78.792 C 268.167 78.723,267.900 78.667,267.573 78.667 C 267.163 78.667,267.017 78.727,267.101 78.862 C 267.183 78.995,267.129 79.021,266.930 78.945 C 266.770 78.884,266.608 78.833,266.570 78.833 C 266.531 78.833,266.500 61.096,266.500 39.417 L 266.500 0.000 258.083 0.000 L 249.666 0.000 249.708 47.375 M309.333 49.065 L 309.333 98.130 311.125 98.233 C 314.696 98.436,316.263 98.533,316.917 98.588 C 319.318 98.792,320.525 98.877,321.291 98.895 C 321.772 98.907,322.166 98.957,322.166 99.007 C 322.166 99.057,322.485 99.094,322.875 99.090 C 323.265 99.087,323.638 99.158,323.706 99.250 C 323.781 99.352,323.829 99.332,323.831 99.198 C 323.832 99.079,323.907 99.026,323.996 99.081 C 324.086 99.136,324.555 99.218,325.038 99.263 L 325.917 99.344 325.874 49.672 L 325.832 -0.000 317.583 -0.000 L 309.333 0.000 309.333 49.065 M340.667 0.110 C 340.667 0.340,341.246 2.087,341.348 2.167 C 341.439 2.237,341.702 2.896,341.748 3.167 C 341.755 3.212,341.856 3.419,341.970 3.625 C 342.085 3.831,342.123 4.000,342.056 4.000 C 341.988 4.000,342.023 4.090,342.133 4.200 C 342.243 4.310,342.333 4.556,342.333 4.746 C 342.333 4.937,342.450 5.259,342.593 5.463 C 342.735 5.667,342.814 5.833,342.768 5.833 C 342.722 5.833,342.762 6.058,342.858 6.333 C 342.954 6.608,343.105 6.833,343.193 6.833 C 343.281 6.833,343.307 6.908,343.250 7.000 C 343.194 7.091,343.264 7.333,343.407 7.537 C 343.550 7.741,343.667 8.041,343.667 8.204 C 343.667 8.367,343.733 8.500,343.815 8.500 C 343.896 8.500,343.959 8.594,343.955 8.708 C 343.937 9.211,344.010 9.514,344.132 9.438 C 344.205 9.393,344.274 9.493,344.287 9.660 C 344.300 9.827,344.547 10.515,344.838 11.190 C 345.352 12.385,345.461 12.709,345.487 13.113 C 345.494 13.221,345.594 13.409,345.708 13.530 C 345.823 13.651,345.921 13.825,345.926 13.917 C 345.949 14.331,346.218 15.000,346.361 15.000 C 346.448 15.000,346.474 15.073,346.419 15.163 C 346.363 15.253,346.412 15.497,346.528 15.705 C 346.644 15.913,346.743 16.121,346.749 16.167 C 346.781 16.413,347.764 18.799,347.949 19.079 C 348.069 19.260,348.167 19.506,348.167 19.626 C 348.167 19.746,348.292 20.123,348.446 20.464 C 348.599 20.804,348.738 21.196,348.755 21.333 C 348.813 21.825,349.025 22.333,349.173 22.333 C 349.255 22.333,349.283 22.436,349.235 22.562 C 349.187 22.688,349.261 22.904,349.399 23.042 C 349.538 23.180,349.612 23.333,349.564 23.381 C 349.516 23.428,349.634 23.812,349.826 24.233 C 350.255 25.176,350.466 25.724,350.441 25.833 C 350.431 25.879,350.547 26.094,350.699 26.311 C 350.851 26.528,350.935 26.809,350.886 26.936 C 350.838 27.063,350.865 27.167,350.947 27.167 C 351.029 27.167,351.108 27.334,351.124 27.539 C 351.139 27.743,351.221 28.062,351.306 28.247 C 351.391 28.432,351.598 28.921,351.767 29.333 C 351.936 29.746,352.139 30.129,352.218 30.185 C 352.297 30.241,352.344 30.316,352.323 30.352 C 352.251 30.473,352.518 31.246,353.022 32.372 C 353.298 32.989,353.476 33.570,353.419 33.664 C 353.361 33.757,353.381 33.833,353.463 33.833 C 353.649 33.833,354.000 34.580,354.000 34.975 C 354.000 35.351,354.376 36.164,354.552 36.165 C 354.626 36.166,354.646 36.233,354.596 36.313 C 354.546 36.394,354.620 36.690,354.761 36.971 C 354.901 37.253,355.043 37.625,355.076 37.798 C 355.110 37.971,355.294 38.405,355.485 38.762 C 355.677 39.119,355.833 39.510,355.833 39.629 C 355.833 39.749,355.985 40.144,356.170 40.507 C 356.355 40.870,356.462 41.167,356.406 41.167 C 356.351 41.167,356.461 41.418,356.651 41.724 C 356.840 42.031,356.958 42.320,356.912 42.366 C 356.828 42.450,357.096 43.183,357.677 44.457 C 357.855 44.845,358.000 45.241,358.000 45.337 C 358.000 45.433,358.178 45.865,358.396 46.297 C 358.614 46.730,358.845 47.327,358.909 47.625 C 358.974 47.923,359.100 48.167,359.190 48.167 C 359.280 48.167,359.314 48.231,359.265 48.309 C 359.217 48.387,359.324 48.739,359.504 49.091 C 359.684 49.444,359.852 49.886,359.878 50.074 C 359.904 50.263,359.985 50.512,360.058 50.628 C 360.136 50.753,360.045 51.075,359.833 51.417 C 359.637 51.734,359.531 52.082,359.597 52.189 C 359.675 52.315,359.646 52.340,359.515 52.259 C 359.389 52.182,359.325 52.220,359.348 52.358 C 359.395 52.638,359.171 53.181,358.891 53.463 C 358.776 53.580,358.723 53.787,358.775 53.921 C 358.827 54.056,358.782 54.167,358.675 54.167 C 358.568 54.167,358.527 54.242,358.583 54.333 C 358.640 54.425,358.616 54.500,358.529 54.500 C 358.392 54.500,358.310 54.668,358.082 55.417 C 358.054 55.508,357.897 55.883,357.734 56.250 C 357.570 56.617,357.426 56.954,357.412 57.000 C 357.337 57.257,357.094 57.762,357.012 57.833 C 356.911 57.921,356.503 58.949,356.439 59.275 C 356.419 59.380,356.321 59.568,356.223 59.692 C 356.124 59.815,355.947 60.217,355.829 60.583 C 355.712 60.950,355.439 61.530,355.224 61.873 C 355.008 62.215,354.846 62.553,354.863 62.623 C 354.880 62.693,354.738 63.087,354.547 63.500 C 354.163 64.329,353.785 65.205,353.754 65.333 C 353.743 65.379,353.531 65.850,353.284 66.380 C 353.036 66.910,352.833 67.416,352.833 67.505 C 352.833 67.594,352.746 67.667,352.639 67.667 C 352.532 67.667,352.494 67.716,352.554 67.776 C 352.614 67.837,352.580 67.987,352.478 68.110 C 352.376 68.233,352.358 68.334,352.438 68.336 C 352.518 68.337,352.486 68.400,352.367 68.476 C 352.247 68.551,352.138 68.775,352.123 68.973 C 352.108 69.171,352.045 69.333,351.983 69.333 C 351.884 69.333,351.636 70.008,351.597 70.381 C 351.589 70.453,351.473 70.580,351.338 70.664 C 351.203 70.747,351.144 70.867,351.207 70.930 C 351.270 70.992,351.233 71.203,351.125 71.397 C 351.017 71.591,350.919 71.787,350.908 71.833 C 350.836 72.129,350.581 72.624,350.379 72.860 C 350.248 73.013,350.121 73.238,350.097 73.360 C 350.072 73.483,349.890 73.946,349.693 74.389 C 349.495 74.832,349.333 75.291,349.333 75.410 C 349.333 75.529,349.217 75.722,349.076 75.840 C 348.934 75.957,348.857 76.154,348.904 76.277 C 348.951 76.400,348.912 76.500,348.818 76.500 C 348.724 76.500,348.688 76.567,348.739 76.649 C 348.790 76.731,348.703 76.848,348.545 76.908 C 348.304 77.001,348.297 77.041,348.500 77.167 C 348.703 77.292,348.696 77.333,348.455 77.425 C 348.297 77.486,348.201 77.588,348.241 77.652 C 348.281 77.717,348.086 78.248,347.808 78.833 C 347.326 79.843,346.970 80.651,346.924 80.833 C 346.912 80.879,346.773 81.160,346.614 81.458 C 346.455 81.756,346.383 82.001,346.454 82.003 C 346.525 82.004,346.488 82.066,346.371 82.140 C 346.173 82.265,345.565 83.697,345.412 84.398 C 345.375 84.571,345.227 84.842,345.083 85.000 C 344.940 85.158,344.794 85.439,344.758 85.624 C 344.723 85.809,344.537 86.284,344.347 86.678 C 344.156 87.073,344.000 87.488,344.000 87.601 C 344.000 87.713,343.923 87.831,343.830 87.862 C 343.736 87.894,343.619 88.141,343.570 88.413 C 343.521 88.684,343.401 89.002,343.303 89.120 C 343.206 89.237,343.191 89.336,343.271 89.338 C 343.351 89.341,343.285 89.420,343.125 89.513 C 342.965 89.607,342.833 89.780,342.833 89.899 C 342.833 90.018,342.714 90.355,342.568 90.648 C 342.421 90.941,342.286 91.288,342.267 91.419 C 342.248 91.550,342.180 91.709,342.116 91.773 C 342.052 91.837,342.000 92.023,342.000 92.186 C 342.000 92.350,341.884 92.548,341.742 92.628 C 341.600 92.707,341.460 92.955,341.431 93.178 C 341.360 93.722,341.060 94.443,340.851 94.572 C 340.758 94.630,340.719 94.775,340.765 94.895 C 340.811 95.015,340.733 95.209,340.593 95.326 C 340.452 95.442,340.378 95.604,340.428 95.686 C 340.479 95.767,340.440 95.833,340.343 95.833 C 340.246 95.833,340.180 95.890,340.197 95.958 C 340.213 96.027,339.988 96.591,339.697 97.213 C 339.405 97.834,339.167 98.452,339.167 98.588 C 339.167 98.723,339.079 98.833,338.972 98.833 C 338.865 98.833,338.821 98.877,338.875 98.930 C 338.928 98.984,338.864 99.285,338.732 99.601 C 338.434 100.315,338.469 100.327,341.500 100.585 C 342.004 100.628,342.604 100.701,342.833 100.748 C 343.063 100.794,343.813 100.899,344.500 100.980 C 345.898 101.146,345.889 101.146,347.180 101.223 C 347.692 101.254,348.184 101.324,348.273 101.379 C 348.431 101.477,348.828 101.507,350.292 101.531 C 350.681 101.538,351.000 101.590,351.000 101.647 C 351.000 101.703,351.244 101.759,351.542 101.771 C 352.163 101.794,354.063 101.974,354.125 102.014 C 354.148 102.029,354.317 102.060,354.500 102.083 C 354.683 102.106,354.852 102.140,354.875 102.158 C 354.911 102.187,355.333 102.276,355.786 102.351 C 356.255 102.429,356.491 102.216,356.954 101.292 C 357.242 100.719,357.612 99.856,357.778 99.375 C 357.943 98.894,358.136 98.500,358.206 98.500 C 358.276 98.500,358.333 98.350,358.333 98.167 C 358.333 97.983,358.408 97.833,358.500 97.833 C 358.592 97.833,358.667 97.738,358.667 97.623 C 358.667 97.507,358.820 97.125,359.008 96.774 C 359.196 96.424,359.266 96.189,359.163 96.252 C 358.956 96.380,359.324 95.651,359.550 95.485 C 359.624 95.430,359.668 95.318,359.649 95.235 C 359.629 95.151,359.700 94.872,359.806 94.614 C 359.913 94.356,360.000 94.081,360.000 94.003 C 360.000 93.925,360.066 93.836,360.147 93.806 C 360.316 93.742,361.333 91.408,361.333 91.086 C 361.333 90.970,361.446 90.781,361.583 90.667 C 361.721 90.553,361.833 90.310,361.833 90.127 C 361.833 89.945,361.976 89.523,362.150 89.189 C 362.585 88.357,363.029 87.334,363.067 87.079 C 363.084 86.962,363.179 86.766,363.279 86.642 C 363.468 86.406,363.743 85.630,363.677 85.519 C 363.656 85.483,363.715 85.406,363.809 85.348 C 363.903 85.290,364.015 85.057,364.059 84.830 C 364.103 84.603,364.494 83.704,364.928 82.833 C 365.363 81.962,365.711 81.119,365.703 80.958 C 365.694 80.798,365.758 80.667,365.844 80.667 C 365.930 80.667,366.000 80.597,366.000 80.511 C 366.000 80.425,366.080 80.144,366.178 79.886 C 366.276 79.628,366.333 79.409,366.303 79.401 C 366.274 79.392,366.353 79.261,366.479 79.109 C 366.605 78.957,366.665 78.833,366.613 78.833 C 366.560 78.833,366.739 78.413,367.009 77.900 C 367.279 77.386,367.500 76.861,367.500 76.733 C 367.500 76.605,367.575 76.500,367.667 76.500 C 367.758 76.500,367.817 76.444,367.798 76.375 C 367.778 76.306,367.853 76.087,367.964 75.888 C 368.074 75.688,368.188 75.377,368.215 75.196 C 368.243 75.014,368.344 74.765,368.440 74.641 C 368.536 74.518,368.674 74.267,368.745 74.083 C 368.861 73.789,368.893 73.813,369.026 74.292 C 369.109 74.590,369.233 74.833,369.303 74.833 C 369.372 74.833,369.440 74.973,369.452 75.143 C 369.465 75.313,369.606 75.744,369.764 76.101 C 369.923 76.458,370.065 76.787,370.078 76.833 C 370.092 76.879,370.233 77.214,370.392 77.578 C 370.550 77.941,370.700 78.371,370.724 78.532 C 370.749 78.693,370.821 78.877,370.885 78.940 C 370.948 79.004,371.000 79.193,371.000 79.361 C 371.000 79.529,371.079 79.667,371.177 79.667 C 371.274 79.667,371.310 79.736,371.258 79.820 C 371.206 79.904,371.258 80.073,371.373 80.195 C 371.489 80.317,371.608 80.604,371.639 80.833 C 371.669 81.063,371.800 81.416,371.930 81.619 C 372.060 81.822,372.167 82.057,372.167 82.140 C 372.167 82.224,372.293 82.583,372.448 82.938 C 372.603 83.293,372.744 83.640,372.761 83.708 C 372.778 83.777,372.812 83.890,372.838 83.958 C 372.863 84.027,372.898 84.158,372.916 84.250 C 372.975 84.556,373.333 85.411,373.601 85.887 C 373.747 86.145,373.903 86.595,373.948 86.887 C 373.993 87.178,374.098 87.442,374.182 87.472 C 374.265 87.503,374.333 87.672,374.333 87.847 C 374.333 88.023,374.421 88.167,374.528 88.167 C 374.635 88.167,374.679 88.210,374.626 88.263 C 374.492 88.396,374.997 89.833,375.177 89.833 C 375.257 89.833,375.280 89.946,375.227 90.083 C 375.174 90.221,375.214 90.333,375.316 90.333 C 375.417 90.333,375.500 90.471,375.500 90.639 C 375.500 90.807,375.552 90.997,375.616 91.060 C 375.745 91.190,375.789 91.336,375.938 92.138 C 375.995 92.443,376.145 92.733,376.271 92.781 C 376.397 92.829,376.500 93.007,376.500 93.175 C 376.500 93.343,376.576 93.527,376.669 93.585 C 376.763 93.643,376.797 93.757,376.746 93.840 C 376.694 93.923,376.834 94.387,377.055 94.870 C 377.590 96.040,377.725 96.392,377.693 96.542 C 377.679 96.610,377.750 96.667,377.851 96.667 C 377.953 96.667,377.996 96.771,377.947 96.898 C 377.898 97.025,377.963 97.277,378.090 97.459 C 378.217 97.641,378.274 97.837,378.216 97.895 C 378.158 97.953,378.196 98.000,378.300 98.000 C 378.404 98.000,378.446 98.113,378.394 98.250 C 378.341 98.387,378.381 98.500,378.482 98.500 C 378.584 98.500,378.651 98.556,378.631 98.625 C 378.612 98.694,378.689 98.919,378.804 99.125 C 378.918 99.331,378.962 99.500,378.902 99.500 C 378.842 99.500,378.886 99.612,379.000 99.750 C 379.114 99.887,379.152 100.000,379.083 100.000 C 379.015 100.000,379.058 100.119,379.178 100.264 C 379.299 100.409,379.414 100.653,379.435 100.806 C 379.491 101.218,380.065 102.736,380.204 102.841 C 380.271 102.890,380.349 103.089,380.379 103.283 C 380.408 103.476,380.512 103.735,380.610 103.859 C 380.708 103.982,380.859 104.302,380.946 104.570 C 381.082 104.994,381.192 105.062,381.792 105.096 C 382.171 105.118,382.544 105.174,382.621 105.222 C 382.698 105.270,383.209 105.361,383.756 105.425 C 384.303 105.488,384.929 105.608,385.148 105.692 C 385.367 105.775,385.583 105.806,385.628 105.761 C 385.674 105.715,385.838 105.746,385.993 105.830 C 386.231 105.957,387.221 106.099,388.750 106.225 C 388.933 106.240,389.167 106.306,389.270 106.373 C 389.373 106.439,389.860 106.542,390.353 106.601 C 391.601 106.752,391.557 106.743,391.817 106.905 C 391.978 107.005,392.014 106.991,391.933 106.859 C 391.805 106.653,392.036 106.591,392.225 106.781 C 392.288 106.844,392.544 106.913,392.795 106.936 C 394.372 107.077,395.147 107.230,395.053 107.382 C 394.996 107.475,395.016 107.510,395.099 107.460 C 395.182 107.409,395.662 107.442,396.167 107.532 C 396.671 107.622,397.421 107.722,397.833 107.754 C 398.246 107.786,398.904 107.864,399.295 107.928 C 400.027 108.048,400.084 107.950,399.687 107.250 C 399.635 107.158,399.577 106.978,399.557 106.850 C 399.538 106.722,399.433 106.561,399.323 106.494 C 399.214 106.426,399.167 106.301,399.220 106.215 C 399.273 106.130,399.170 105.820,398.991 105.526 C 398.813 105.232,398.667 104.844,398.667 104.663 C 398.667 104.482,398.584 104.333,398.482 104.333 C 398.381 104.333,398.339 104.226,398.389 104.096 C 398.491 103.830,398.158 103.003,397.948 103.001 C 397.874 103.001,397.862 102.922,397.920 102.827 C 397.979 102.732,397.871 102.355,397.680 101.989 C 397.489 101.623,397.333 101.255,397.333 101.172 C 397.333 101.090,397.253 100.811,397.155 100.553 C 397.057 100.294,396.988 100.054,397.003 100.019 C 397.017 99.983,396.947 99.904,396.848 99.842 C 396.749 99.781,396.642 99.510,396.610 99.239 C 396.579 98.969,396.466 98.579,396.360 98.374 C 396.254 98.168,396.089 97.847,395.994 97.660 C 395.900 97.473,395.867 97.248,395.921 97.160 C 395.975 97.072,395.954 97.000,395.874 97.000 C 395.793 97.000,395.592 96.569,395.426 96.042 C 395.261 95.515,395.047 94.896,394.952 94.667 C 394.857 94.438,394.792 94.194,394.806 94.125 C 394.821 94.056,394.758 94.000,394.667 94.000 C 394.575 94.000,394.500 93.854,394.500 93.677 C 394.500 93.499,394.424 93.306,394.331 93.248 C 394.237 93.191,394.204 93.074,394.257 92.988 C 394.310 92.903,394.269 92.833,394.167 92.833 C 394.064 92.833,394.026 92.760,394.081 92.670 C 394.137 92.580,394.088 92.337,393.974 92.128 C 393.859 91.920,393.761 91.675,393.756 91.583 C 393.751 91.492,393.614 91.173,393.452 90.875 C 393.290 90.577,393.202 90.333,393.255 90.333 C 393.309 90.333,393.242 90.127,393.108 89.875 C 392.974 89.623,392.701 88.929,392.502 88.333 C 392.303 87.737,392.019 86.987,391.869 86.667 C 391.720 86.346,391.616 85.990,391.639 85.875 C 391.662 85.760,391.599 85.667,391.497 85.667 C 391.396 85.667,391.360 85.592,391.417 85.500 C 391.473 85.408,391.456 85.333,391.379 85.333 C 391.301 85.333,391.225 85.171,391.210 84.973 C 391.196 84.775,391.120 84.569,391.043 84.515 C 390.966 84.461,390.888 84.209,390.870 83.955 C 390.851 83.701,390.723 83.320,390.584 83.108 C 390.446 82.897,390.382 82.673,390.444 82.612 C 390.505 82.550,390.471 82.500,390.369 82.500 C 390.266 82.500,390.132 82.237,390.072 81.915 C 390.012 81.593,389.896 81.289,389.814 81.238 C 389.733 81.188,389.667 80.964,389.667 80.740 C 389.667 80.516,389.594 80.333,389.505 80.333 C 389.416 80.333,389.392 80.209,389.450 80.056 C 389.522 79.870,389.493 79.818,389.362 79.899 C 389.234 79.978,389.167 79.883,389.167 79.621 C 389.167 79.402,389.114 79.170,389.051 79.106 C 388.987 79.043,388.916 78.864,388.894 78.710 C 388.871 78.556,388.728 78.127,388.575 77.757 C 388.423 77.386,388.147 76.708,387.962 76.250 C 387.778 75.792,387.532 75.229,387.417 75.000 C 387.301 74.771,387.072 74.133,386.907 73.583 C 386.742 73.033,386.592 72.546,386.573 72.500 C 386.554 72.454,386.484 72.248,386.416 72.042 C 386.349 71.835,386.216 71.667,386.119 71.667 C 386.023 71.667,385.995 71.616,386.056 71.555 C 386.118 71.494,386.049 71.262,385.904 71.041 C 385.759 70.819,385.681 70.597,385.731 70.547 C 385.781 70.497,385.733 70.297,385.625 70.103 C 385.517 69.909,385.419 69.712,385.408 69.667 C 385.397 69.621,385.341 69.471,385.284 69.333 C 384.898 68.406,384.500 67.206,384.500 66.972 C 384.500 66.819,384.421 66.668,384.324 66.636 C 384.228 66.604,384.130 66.466,384.108 66.330 C 384.086 66.194,383.970 65.906,383.850 65.688 C 383.718 65.447,383.705 65.338,383.818 65.407 C 383.947 65.487,383.944 65.393,383.808 65.094 C 383.701 64.859,383.544 64.667,383.459 64.667 C 383.375 64.667,383.339 64.573,383.380 64.458 C 383.421 64.344,383.375 64.100,383.277 63.917 C 383.179 63.733,383.071 63.397,383.038 63.170 C 383.005 62.942,382.904 62.711,382.814 62.655 C 382.724 62.599,382.638 62.391,382.623 62.193 C 382.608 61.995,382.549 61.833,382.491 61.833 C 382.368 61.833,381.899 60.474,381.959 60.292 C 381.982 60.223,381.925 60.167,381.833 60.167 C 381.742 60.167,381.667 59.937,381.667 59.657 C 381.667 59.363,381.597 59.190,381.502 59.249 C 381.410 59.306,381.378 59.244,381.430 59.109 C 381.481 58.976,381.443 58.818,381.345 58.757 C 381.247 58.697,381.167 58.501,381.167 58.323 C 381.167 58.146,381.079 58.000,380.972 58.000 C 380.865 58.000,380.819 57.959,380.869 57.909 C 380.919 57.858,380.739 57.240,380.468 56.534 C 380.196 55.828,379.812 54.800,379.612 54.250 C 379.413 53.700,379.198 53.226,379.134 53.198 C 379.071 53.169,379.061 53.035,379.113 52.900 C 379.165 52.765,379.074 52.507,378.911 52.327 C 378.748 52.147,378.662 52.000,378.720 52.000 C 378.778 52.000,378.750 51.802,378.658 51.560 C 378.527 51.217,378.550 51.054,378.762 50.821 C 378.911 50.656,378.987 50.447,378.931 50.357 C 378.876 50.267,378.943 50.080,379.082 49.942 C 379.220 49.804,379.333 49.573,379.333 49.429 C 379.333 49.285,379.408 49.167,379.500 49.167 C 379.592 49.167,379.655 49.110,379.640 49.042 C 379.610 48.899,379.745 48.506,380.113 47.667 C 380.254 47.346,380.403 46.896,380.444 46.667 C 380.486 46.438,380.591 46.225,380.678 46.194 C 380.764 46.163,380.793 46.070,380.741 45.986 C 380.689 45.902,380.731 45.833,380.833 45.833 C 380.936 45.833,380.973 45.758,380.917 45.667 C 380.860 45.575,380.877 45.500,380.954 45.500 C 381.031 45.500,381.197 45.144,381.322 44.708 C 381.448 44.273,381.793 43.392,382.090 42.750 C 382.681 41.471,382.860 41.031,382.929 40.694 C 382.954 40.571,383.096 40.337,383.244 40.173 C 383.393 40.009,383.501 39.809,383.485 39.729 C 383.436 39.487,383.701 38.500,383.814 38.500 C 383.872 38.500,384.018 38.342,384.139 38.149 C 384.286 37.914,384.293 37.838,384.162 37.920 C 384.054 37.986,384.094 37.844,384.252 37.604 C 384.409 37.363,384.489 37.167,384.429 37.167 C 384.369 37.167,384.517 36.829,384.759 36.417 C 385.001 36.004,385.152 35.667,385.096 35.667 C 385.040 35.667,385.180 35.301,385.406 34.854 C 385.633 34.406,385.772 33.994,385.715 33.937 C 385.658 33.880,385.682 33.833,385.769 33.833 C 385.856 33.833,386.027 33.496,386.149 33.083 C 386.270 32.671,386.437 32.333,386.518 32.333 C 386.600 32.333,386.667 32.230,386.667 32.104 C 386.667 31.978,386.853 31.453,387.082 30.937 C 387.310 30.421,387.493 29.980,387.489 29.958 C 387.485 29.935,387.669 29.493,387.897 28.976 C 388.126 28.459,388.268 27.990,388.212 27.934 C 388.157 27.879,388.211 27.833,388.333 27.833 C 388.456 27.833,388.511 27.789,388.456 27.734 C 388.402 27.679,388.502 27.377,388.678 27.062 C 388.855 26.747,389.000 26.373,389.000 26.230 C 389.000 26.086,389.146 25.784,389.324 25.557 C 389.502 25.331,389.607 25.038,389.556 24.906 C 389.506 24.774,389.535 24.667,389.622 24.667 C 389.708 24.667,389.919 24.254,390.091 23.750 C 390.262 23.246,390.462 22.833,390.535 22.833 C 390.607 22.833,390.667 22.688,390.667 22.510 C 390.667 22.332,390.747 22.137,390.845 22.076 C 390.943 22.016,390.981 21.857,390.930 21.724 C 390.879 21.591,390.981 21.328,391.157 21.139 C 391.333 20.950,391.526 20.504,391.587 20.147 C 391.647 19.791,391.772 19.500,391.866 19.500 C 391.959 19.500,391.991 19.384,391.936 19.241 C 391.882 19.099,391.900 19.022,391.977 19.069 C 392.054 19.117,392.217 18.839,392.339 18.453 C 392.460 18.066,392.621 17.668,392.695 17.568 C 392.770 17.468,392.781 17.337,392.721 17.276 C 392.660 17.216,392.693 17.167,392.792 17.167 C 392.892 17.167,393.023 16.942,393.083 16.667 C 393.144 16.391,393.375 15.825,393.597 15.408 C 393.818 14.990,394.000 14.551,394.000 14.431 C 394.000 14.231,394.277 13.577,395.453 11.000 C 395.683 10.496,395.889 10.008,395.910 9.917 C 395.931 9.825,396.037 9.525,396.146 9.250 C 396.254 8.975,396.425 8.525,396.527 8.250 C 396.628 7.975,396.919 7.263,397.174 6.667 C 397.585 5.706,397.740 5.300,397.859 4.873 C 397.877 4.805,397.992 4.651,398.113 4.530 C 398.234 4.409,398.380 4.015,398.438 3.655 C 398.495 3.295,398.590 3.000,398.647 3.000 C 398.705 3.000,398.836 2.794,398.938 2.542 C 399.040 2.290,399.283 1.694,399.478 1.219 C 399.674 0.744,399.833 0.275,399.833 0.177 C 399.833 0.054,397.039 0.000,390.673 0.000 C 381.019 0.000,381.233 -0.015,381.195 0.667 C 381.183 0.877,380.226 3.233,379.817 4.058 C 379.643 4.410,379.542 4.766,379.593 4.849 C 379.644 4.932,379.607 5.000,379.509 5.000 C 379.412 5.000,379.242 5.337,379.131 5.750 C 379.021 6.162,378.887 6.500,378.834 6.500 C 378.781 6.500,378.725 6.662,378.710 6.860 C 378.696 7.058,378.601 7.271,378.500 7.334 C 378.398 7.396,378.332 7.515,378.351 7.599 C 378.388 7.752,378.282 8.039,377.743 9.250 C 377.580 9.617,377.437 9.954,377.426 10.000 C 377.414 10.046,377.316 10.242,377.208 10.436 C 377.100 10.631,377.059 10.837,377.117 10.895 C 377.175 10.953,377.147 11.000,377.054 11.000 C 376.962 11.000,376.784 11.319,376.659 11.708 C 376.533 12.098,376.369 12.460,376.295 12.512 C 376.220 12.565,376.125 12.784,376.083 13.000 C 376.042 13.216,375.931 13.469,375.837 13.563 C 375.743 13.657,375.667 13.833,375.667 13.955 C 375.667 14.077,375.542 14.456,375.390 14.797 C 375.238 15.138,375.100 15.454,375.084 15.500 C 375.068 15.546,375.005 15.715,374.944 15.875 C 374.883 16.035,374.784 16.298,374.723 16.458 C 374.662 16.619,374.603 16.787,374.591 16.833 C 374.579 16.879,374.444 17.151,374.291 17.437 C 374.138 17.723,374.060 18.005,374.118 18.062 C 374.175 18.120,374.141 18.167,374.041 18.167 C 373.879 18.167,373.451 19.149,373.424 19.583 C 373.418 19.675,373.281 19.993,373.120 20.290 C 372.959 20.587,372.834 20.871,372.842 20.921 C 372.850 20.971,372.695 21.346,372.497 21.755 C 372.299 22.165,372.122 22.604,372.103 22.733 C 372.084 22.861,371.980 23.074,371.871 23.205 C 371.762 23.336,371.648 23.587,371.616 23.763 C 371.584 23.939,371.433 24.374,371.279 24.729 C 371.126 25.084,371.000 25.477,371.000 25.604 C 371.000 25.730,370.925 25.833,370.833 25.833 C 370.742 25.833,370.667 25.947,370.667 26.086 C 370.667 26.224,370.592 26.468,370.500 26.627 C 370.282 27.006,369.926 27.911,369.854 28.270 C 369.843 28.327,369.717 28.278,369.576 28.160 C 369.434 28.043,369.357 27.846,369.404 27.723 C 369.451 27.600,369.404 27.500,369.300 27.500 C 369.196 27.500,369.160 27.451,369.221 27.390 C 369.281 27.330,369.254 27.189,369.161 27.077 C 369.068 26.965,368.878 26.434,368.738 25.897 C 368.598 25.360,368.373 24.859,368.238 24.783 C 368.103 24.708,368.033 24.581,368.083 24.501 C 368.132 24.422,368.096 24.309,368.003 24.252 C 367.910 24.194,367.833 24.044,367.833 23.918 C 367.833 23.792,367.746 23.477,367.639 23.219 C 367.532 22.961,367.438 22.700,367.431 22.639 C 367.423 22.578,367.360 22.472,367.292 22.403 C 367.223 22.334,367.167 22.158,367.167 22.011 C 367.167 21.865,367.027 21.484,366.856 21.164 C 366.684 20.845,366.491 20.340,366.426 20.042 C 366.360 19.744,366.232 19.500,366.140 19.500 C 366.048 19.500,366.006 19.406,366.047 19.292 C 366.087 19.177,366.004 18.858,365.861 18.583 C 365.718 18.308,365.575 17.912,365.544 17.703 C 365.513 17.493,365.300 16.987,365.072 16.578 C 364.843 16.168,364.698 15.833,364.749 15.833 C 364.800 15.833,364.726 15.609,364.584 15.335 C 364.443 15.061,364.316 14.780,364.303 14.710 C 364.222 14.266,364.112 14.000,364.008 14.000 C 363.943 14.000,363.881 13.906,363.871 13.792 C 363.861 13.677,363.817 13.433,363.773 13.250 C 363.728 13.067,363.686 12.818,363.679 12.698 C 363.672 12.579,363.607 12.517,363.535 12.562 C 363.462 12.607,363.390 12.481,363.375 12.283 C 363.360 12.085,363.262 11.734,363.157 11.503 C 363.051 11.272,362.868 10.858,362.750 10.583 C 362.633 10.308,362.398 9.783,362.230 9.417 C 362.062 9.050,361.913 8.611,361.901 8.440 C 361.888 8.270,361.811 8.082,361.730 8.023 C 361.649 7.965,361.558 7.767,361.526 7.583 C 361.495 7.400,361.406 7.226,361.327 7.198 C 361.249 7.169,361.231 7.027,361.286 6.882 C 361.342 6.737,361.274 6.536,361.136 6.434 C 360.997 6.333,360.863 6.175,360.837 6.083 C 360.812 5.992,360.772 5.842,360.749 5.750 C 360.518 4.835,360.062 3.500,359.980 3.500 C 359.923 3.500,359.782 3.162,359.667 2.750 C 359.551 2.337,359.401 2.000,359.333 2.000 C 359.205 2.000,358.934 1.080,358.953 0.708 C 358.958 0.594,358.896 0.500,358.815 0.500 C 358.733 0.500,358.667 0.388,358.667 0.250 C 358.667 0.031,357.556 0.000,349.667 0.000 C 344.717 0.000,340.667 0.050,340.667 0.110 " stroke="none" fill="#dc1c24" fill-rule="evenodd"></path><path id="path1" d="M37.793 30.349 C 37.769 47.041,37.806 60.733,37.875 60.776 C 37.944 60.818,38.000 47.161,38.000 30.427 C 38.000 13.692,37.963 -0.000,37.918 -0.000 C 37.872 -0.000,37.816 13.657,37.793 30.349 M71.416 49.750 C 71.416 77.158,71.435 88.346,71.458 74.612 C 71.482 60.877,71.482 38.452,71.458 24.778 C 71.435 11.104,71.416 22.342,71.416 49.750 M180.833 8.415 L 180.833 16.830 172.125 16.876 L 163.417 16.921 172.250 16.919 L 181.083 16.917 181.127 8.458 C 181.155 2.851,181.113 0.000,181.002 0.000 C 180.891 0.000,180.833 2.865,180.833 8.415 M249.541 47.357 C 249.504 90.487,249.524 94.807,249.764 94.899 C 250.131 95.040,250.581 95.025,250.433 94.877 C 250.365 94.810,250.184 94.753,250.030 94.752 C 249.769 94.750,249.744 91.587,249.666 47.333 L 249.582 -0.083 249.541 47.357 M399.449 1.252 C 399.297 1.572,399.206 1.833,399.248 1.833 C 399.362 1.833,399.868 0.813,399.792 0.737 C 399.756 0.700,399.602 0.932,399.449 1.252 M359.125 1.579 C 359.186 1.897,359.261 1.972,359.390 1.844 C 359.518 1.716,359.494 1.589,359.305 1.400 C 359.063 1.158,359.048 1.174,359.125 1.579 M16.697 1.917 C 16.802 2.147,16.920 2.303,16.959 2.263 C 17.077 2.146,16.823 1.500,16.659 1.500 C 16.575 1.500,16.593 1.688,16.697 1.917 M377.849 8.360 C 377.620 9.016,377.759 9.218,378.000 8.582 C 378.097 8.327,378.216 8.054,378.265 7.976 C 378.313 7.898,378.281 7.833,378.193 7.833 C 378.105 7.833,377.950 8.070,377.849 8.360 M21.755 16.025 C 21.834 16.438,22.167 16.856,22.167 16.543 C 22.167 16.439,22.090 16.306,21.997 16.248 C 21.904 16.191,21.868 16.079,21.917 16.000 C 21.965 15.921,21.933 15.812,21.845 15.757 C 21.753 15.701,21.715 15.816,21.755 16.025 M95.708 16.958 C 99.810 16.983,106.523 16.983,110.625 16.958 C 114.727 16.933,111.371 16.913,103.167 16.913 C 94.962 16.913,91.606 16.933,95.708 16.958 M131.917 16.954 C 140.074 17.070,146.500 17.072,146.500 16.958 C 146.500 16.890,142.506 16.850,137.625 16.871 C 132.744 16.892,130.175 16.929,131.917 16.954 M215.958 16.958 C 220.198 16.983,227.135 16.983,231.375 16.958 C 235.615 16.934,232.146 16.913,223.667 16.913 C 215.188 16.913,211.719 16.934,215.958 16.958 M347.361 18.175 C 347.459 18.455,347.569 18.653,347.607 18.615 C 347.690 18.532,347.375 17.667,347.263 17.667 C 347.219 17.667,347.264 17.895,347.361 18.175 M368.846 26.271 C 368.839 26.466,368.958 26.729,369.111 26.855 C 369.358 27.059,369.370 27.048,369.216 26.750 C 369.122 26.567,369.003 26.304,368.952 26.167 C 368.889 25.995,368.856 26.028,368.846 26.271 M388.207 28.049 C 388.198 28.160,388.147 28.438,388.094 28.667 C 388.040 28.896,388.045 28.971,388.104 28.833 C 388.163 28.696,388.277 28.457,388.356 28.302 C 388.436 28.147,388.438 27.981,388.362 27.934 C 388.285 27.887,388.215 27.938,388.207 28.049 M386.933 31.350 C 386.738 31.741,386.731 31.821,386.903 31.678 C 387.108 31.508,387.382 30.833,387.247 30.833 C 387.216 30.833,387.075 31.066,386.933 31.350 M231.460 46.958 L 231.417 55.250 219.833 55.335 L 208.250 55.420 219.952 55.460 L 231.655 55.500 231.664 47.083 C 231.668 42.454,231.634 38.667,231.588 38.667 C 231.541 38.667,231.484 42.398,231.460 46.958 M105.794 39.285 C 106.001 39.324,106.301 39.323,106.460 39.281 C 106.620 39.239,106.450 39.207,106.083 39.209 C 105.717 39.211,105.586 39.245,105.794 39.285 M107.292 39.287 C 107.590 39.324,108.077 39.324,108.375 39.287 C 108.673 39.250,108.429 39.220,107.833 39.220 C 107.237 39.220,106.994 39.250,107.292 39.287 M89.292 39.451 C 89.498 39.491,89.835 39.491,90.042 39.451 C 90.248 39.411,90.079 39.379,89.667 39.379 C 89.254 39.379,89.085 39.411,89.292 39.451 M356.072 40.750 C 356.137 41.025,356.262 41.323,356.350 41.413 C 356.437 41.502,356.421 41.315,356.313 40.996 C 356.061 40.250,355.919 40.105,356.072 40.750 M17.206 76.458 C 17.228 92.569,17.266 102.712,17.289 99.000 C 17.402 81.501,17.403 47.167,17.292 47.167 C 17.223 47.167,17.185 60.348,17.206 76.458 M19.028 52.509 C 19.125 52.788,19.227 52.994,19.255 52.967 C 19.358 52.862,19.121 52.000,18.989 52.000 C 18.913 52.000,18.930 52.229,19.028 52.509 M93.500 56.333 C 93.146 56.447,93.190 56.469,93.792 56.483 C 94.181 56.493,94.500 56.425,94.500 56.333 C 94.500 56.141,94.100 56.141,93.500 56.333 M95.628 56.287 C 95.928 56.325,96.378 56.324,96.628 56.286 C 96.878 56.248,96.633 56.217,96.083 56.218 C 95.533 56.219,95.328 56.250,95.628 56.287 M102.542 56.286 C 102.794 56.324,103.206 56.324,103.458 56.286 C 103.710 56.248,103.504 56.217,103.000 56.217 C 102.496 56.217,102.290 56.248,102.542 56.286 M105.367 56.291 C 106.164 56.321,107.514 56.321,108.367 56.291 C 109.219 56.261,108.567 56.236,106.917 56.236 C 105.267 56.235,104.569 56.260,105.367 56.291 M353.667 64.869 C 353.667 64.918,353.553 65.231,353.414 65.563 C 353.276 65.895,353.226 66.167,353.303 66.167 C 353.463 66.167,353.864 64.975,353.745 64.856 C 353.702 64.813,353.667 64.819,353.667 64.869 M23.508 65.681 C 23.610 65.872,23.727 65.995,23.767 65.955 C 23.884 65.838,23.648 65.333,23.476 65.333 C 23.391 65.333,23.405 65.490,23.508 65.681 M278.554 79.277 C 278.688 79.410,279.852 79.438,279.931 79.310 C 279.976 79.238,279.669 79.185,279.250 79.194 C 278.830 79.202,278.517 79.239,278.554 79.277 M152.250 94.680 C 151.628 94.779,151.647 94.788,152.542 94.810 C 153.069 94.823,153.500 94.805,153.500 94.769 C 153.500 94.626,152.876 94.581,152.250 94.680 M155.625 94.621 C 155.923 94.658,156.410 94.658,156.708 94.621 C 157.006 94.584,156.762 94.553,156.167 94.553 C 155.571 94.553,155.327 94.584,155.625 94.621 M259.928 95.148 C 259.891 95.208,260.192 95.271,260.597 95.290 C 261.002 95.308,261.333 95.264,261.333 95.193 C 261.333 95.035,260.024 94.993,259.928 95.148 M377.566 96.418 C 377.616 96.753,378.000 97.151,378.000 96.867 C 378.000 96.757,377.921 96.667,377.823 96.667 C 377.726 96.667,377.690 96.597,377.743 96.512 C 377.796 96.426,377.769 96.313,377.684 96.261 C 377.599 96.208,377.546 96.279,377.566 96.418 M88.208 98.448 C 88.369 98.490,88.631 98.490,88.792 98.448 C 88.952 98.406,88.821 98.372,88.500 98.372 C 88.179 98.372,88.048 98.406,88.208 98.448 M338.279 99.943 C 338.139 100.083,338.480 100.502,338.729 100.495 C 338.832 100.492,338.776 100.408,338.605 100.309 C 338.353 100.163,338.337 100.100,338.522 99.983 C 338.647 99.904,338.669 99.837,338.569 99.836 C 338.470 99.834,338.340 99.883,338.279 99.943 M339.018 100.407 C 339.173 100.562,340.003 100.639,339.910 100.490 C 339.857 100.404,339.618 100.333,339.379 100.333 C 339.140 100.333,338.977 100.366,339.018 100.407 M356.886 101.428 C 356.750 101.720,356.745 101.835,356.870 101.793 C 357.079 101.724,357.383 100.999,357.203 101.001 C 357.137 101.002,356.994 101.194,356.886 101.428 M53.083 101.333 C 52.790 101.459,52.806 101.478,53.218 101.488 C 53.490 101.495,53.643 101.430,53.583 101.333 C 53.527 101.242,53.466 101.172,53.448 101.178 C 53.431 101.185,53.267 101.255,53.083 101.333 M43.728 102.536 C 43.683 102.608,43.839 102.667,44.073 102.667 C 44.308 102.667,44.500 102.608,44.500 102.536 C 44.500 102.464,44.344 102.405,44.154 102.405 C 43.964 102.405,43.772 102.464,43.728 102.536 M380.445 103.961 C 380.497 104.169,380.606 104.379,380.687 104.429 C 380.915 104.570,380.859 104.265,380.592 103.907 C 380.358 103.595,380.353 103.597,380.445 103.961 M398.444 103.944 C 398.268 104.121,398.314 104.290,398.564 104.386 C 398.727 104.449,398.771 104.379,398.712 104.154 C 398.618 103.798,398.603 103.786,398.444 103.944 M396.250 107.667 C 396.433 107.745,396.733 107.810,396.917 107.810 L 397.250 107.810 396.917 107.667 C 396.733 107.588,396.433 107.523,396.250 107.523 L 395.917 107.523 396.250 107.667 " stroke="none" fill="#dc1424" fill-rule="evenodd"></path><path id="path2" d="M71.249 49.917 C 71.249 77.417,71.268 88.642,71.292 74.862 C 71.315 61.081,71.315 38.581,71.292 24.862 C 71.268 11.142,71.249 22.417,71.249 49.917 M118.244 8.417 C 118.244 13.092,118.265 15.028,118.292 12.720 C 118.318 10.412,118.318 6.587,118.292 4.220 C 118.265 1.853,118.244 3.742,118.244 8.417 M128.911 8.417 C 128.911 13.092,128.932 15.028,128.958 12.720 C 128.984 10.412,128.984 6.587,128.958 4.220 C 128.932 1.853,128.911 3.742,128.911 8.417 M191.749 46.833 C 191.749 72.637,191.768 83.194,191.792 70.292 C 191.815 57.390,191.815 36.277,191.792 23.375 C 191.768 10.473,191.749 21.029,191.749 46.833 M266.582 39.417 C 266.582 61.142,266.601 70.004,266.625 59.112 C 266.649 48.219,266.649 30.444,266.625 19.612 C 266.601 8.779,266.582 17.692,266.582 39.417 M325.833 49.583 C 325.833 82.528,325.889 99.167,326.000 99.167 C 326.111 99.167,326.167 82.528,326.167 49.583 C 326.167 16.639,326.111 0.000,326.000 0.000 C 325.889 0.000,325.833 16.639,325.833 49.583 M340.444 0.123 C 340.383 0.222,340.395 0.472,340.472 0.680 C 340.555 0.902,340.657 0.983,340.723 0.877 C 340.784 0.778,340.771 0.528,340.694 0.320 C 340.612 0.098,340.509 0.017,340.444 0.123 M340.781 1.125 C 340.741 1.194,340.769 1.400,340.842 1.583 C 340.960 1.874,340.978 1.858,340.988 1.458 C 341.000 1.006,340.922 0.881,340.781 1.125 M380.697 1.416 C 380.593 1.646,380.575 1.833,380.659 1.833 C 380.823 1.833,381.077 1.188,380.959 1.070 C 380.920 1.031,380.802 1.186,380.697 1.416 M399.166 2.084 C 399.069 2.339,398.950 2.612,398.902 2.691 C 398.853 2.769,398.854 2.833,398.903 2.833 C 399.048 2.833,399.532 1.810,399.434 1.711 C 399.384 1.661,399.263 1.829,399.166 2.084 M359.544 2.417 C 359.642 2.737,359.793 3.000,359.879 3.000 C 359.965 3.000,359.982 2.869,359.916 2.708 C 359.850 2.548,359.758 2.285,359.712 2.125 C 359.666 1.965,359.569 1.833,359.496 1.833 C 359.424 1.833,359.445 2.096,359.544 2.417 M378.601 6.430 C 378.464 6.789,378.472 6.833,378.677 6.833 C 378.774 6.833,378.807 6.758,378.750 6.667 C 378.693 6.575,378.726 6.500,378.823 6.500 C 378.921 6.500,379.000 6.425,379.000 6.333 C 379.000 6.070,378.713 6.140,378.601 6.430 M19.211 8.977 C 19.225 9.168,19.335 9.362,19.456 9.409 C 19.630 9.476,19.635 9.418,19.481 9.121 C 19.210 8.599,19.181 8.584,19.211 8.977 M362.093 9.042 C 362.227 9.479,362.304 9.585,362.410 9.479 C 362.537 9.352,362.306 8.667,362.136 8.667 C 362.049 8.667,362.029 8.835,362.093 9.042 M396.057 9.418 C 395.951 9.647,395.932 9.792,396.015 9.741 C 396.235 9.605,396.534 9.000,396.381 9.001 C 396.309 9.002,396.163 9.190,396.057 9.418 M376.828 10.843 C 376.728 11.031,376.681 11.275,376.726 11.384 C 376.771 11.494,376.813 11.452,376.820 11.292 C 376.827 11.131,376.896 11.000,376.972 11.000 C 377.049 11.000,377.111 10.887,377.111 10.750 C 377.111 10.414,377.046 10.435,376.828 10.843 M20.430 12.479 C 20.366 12.582,20.393 12.667,20.490 12.667 C 20.587 12.667,20.673 12.798,20.680 12.958 C 20.687 13.122,20.729 13.161,20.775 13.048 C 20.893 12.758,20.578 12.239,20.430 12.479 M345.356 13.328 C 345.458 13.620,345.649 13.831,345.808 13.828 C 346.054 13.824,346.052 13.805,345.792 13.653 C 345.631 13.560,345.500 13.379,345.500 13.252 C 345.500 13.124,345.428 12.975,345.340 12.921 C 345.245 12.862,345.252 13.028,345.356 13.328 M394.433 13.360 C 394.294 13.559,394.219 13.784,394.267 13.860 C 394.314 13.937,394.274 14.000,394.177 14.000 C 394.079 14.000,394.000 14.075,394.000 14.167 C 394.000 14.560,394.303 14.282,394.545 13.667 C 394.839 12.919,394.806 12.828,394.433 13.360 M21.232 14.583 C 21.333 14.904,21.480 15.167,21.559 15.167 C 21.638 15.167,21.648 15.035,21.582 14.875 C 21.516 14.715,21.424 14.452,21.378 14.292 C 21.332 14.131,21.239 14.000,21.172 14.000 C 21.105 14.000,21.132 14.262,21.232 14.583 M375.188 14.817 C 375.062 14.896,374.993 15.064,375.035 15.189 C 375.088 15.347,375.172 15.302,375.311 15.041 C 375.533 14.627,375.521 14.606,375.188 14.817 M364.506 15.177 C 364.607 15.367,364.720 15.680,364.758 15.874 C 364.795 16.067,364.913 16.306,365.021 16.404 C 365.164 16.536,365.181 16.522,365.084 16.352 C 365.012 16.225,364.935 16.000,364.915 15.852 C 364.842 15.332,364.626 14.833,364.475 14.833 C 364.390 14.833,364.404 14.988,364.506 15.177 M393.456 15.709 L 393.162 16.250 393.498 15.857 C 393.783 15.522,393.936 15.164,393.792 15.168 C 393.769 15.168,393.618 15.412,393.456 15.709 M374.276 17.036 C 374.150 17.515,374.215 17.561,374.461 17.167 C 374.570 16.992,374.595 16.809,374.516 16.760 C 374.436 16.711,374.328 16.835,374.276 17.036 M172.250 16.998 L 163.417 17.083 163.416 55.750 L 163.416 94.417 163.458 55.792 L 163.501 17.167 172.241 17.167 C 177.887 17.167,181.017 17.108,181.083 17.000 C 181.140 16.908,181.163 16.851,181.135 16.873 C 181.107 16.894,177.108 16.951,172.250 16.998 M95.708 17.125 C 99.810 17.150,106.523 17.150,110.625 17.125 C 114.727 17.100,111.371 17.080,103.167 17.080 C 94.962 17.080,91.606 17.100,95.708 17.125 M137.708 17.124 L 146.333 17.170 146.375 56.085 L 146.418 95.000 146.417 56.042 L 146.417 17.083 137.750 17.081 L 129.083 17.079 137.708 17.124 M208.410 17.208 C 208.366 17.323,208.350 22.142,208.375 27.917 L 208.419 38.417 208.460 27.793 L 208.500 17.168 223.708 17.125 L 238.917 17.082 223.703 17.041 C 211.656 17.008,208.473 17.043,208.410 17.208 M366.099 19.000 C 366.155 19.229,366.304 19.632,366.431 19.895 C 366.558 20.158,366.621 20.440,366.571 20.520 C 366.521 20.601,366.560 20.667,366.657 20.667 C 366.754 20.667,366.821 20.723,366.806 20.792 C 366.761 21.003,367.170 21.885,367.268 21.787 C 367.319 21.737,367.264 21.520,367.147 21.306 C 367.029 21.092,366.916 20.817,366.896 20.695 C 366.861 20.486,366.631 19.931,366.194 19.000 L 365.998 18.583 366.099 19.000 M373.358 19.096 C 373.250 19.332,373.205 19.594,373.258 19.679 C 373.310 19.764,373.286 19.833,373.203 19.833 C 373.121 19.833,372.968 20.021,372.864 20.250 C 372.759 20.479,372.735 20.667,372.810 20.667 C 372.960 20.667,373.363 19.896,373.421 19.500 C 373.441 19.362,373.512 19.119,373.580 18.958 C 373.774 18.496,373.575 18.620,373.358 19.096 M347.731 19.428 C 347.787 19.574,347.833 19.730,347.833 19.773 C 347.833 19.817,347.908 19.807,348.000 19.750 C 348.247 19.597,348.202 19.383,347.898 19.266 C 347.702 19.191,347.657 19.234,347.731 19.428 M24.399 23.430 C 24.454 23.575,24.500 23.725,24.500 23.764 C 24.500 23.802,24.568 23.833,24.651 23.833 C 24.734 23.833,24.763 23.683,24.715 23.500 C 24.667 23.317,24.554 23.167,24.463 23.167 C 24.372 23.167,24.343 23.285,24.399 23.430 M370.754 25.375 C 370.576 25.765,370.427 26.158,370.423 26.250 C 370.420 26.342,370.342 26.479,370.250 26.554 C 370.151 26.636,370.184 26.664,370.333 26.623 C 370.471 26.586,370.584 26.417,370.584 26.249 C 370.584 26.081,370.679 25.913,370.793 25.874 C 370.908 25.836,370.961 25.738,370.911 25.657 C 370.861 25.576,370.944 25.320,371.096 25.088 C 371.247 24.856,371.306 24.667,371.225 24.667 C 371.145 24.667,370.933 24.985,370.754 25.375 M389.154 25.708 C 389.147 25.731,389.108 25.932,389.068 26.154 C 389.027 26.376,388.911 26.657,388.810 26.779 C 388.675 26.940,388.676 27.000,388.813 27.000 C 388.916 27.000,389.000 26.972,389.000 26.937 C 389.000 26.902,389.114 26.602,389.252 26.270 C 389.400 25.917,389.434 25.667,389.336 25.667 C 389.243 25.667,389.161 25.685,389.154 25.708 M350.452 26.503 C 350.563 26.927,350.775 27.063,350.931 26.810 C 351.006 26.688,350.979 26.660,350.859 26.734 C 350.737 26.809,350.667 26.727,350.667 26.510 C 350.667 26.321,350.599 26.167,350.516 26.167 C 350.433 26.167,350.404 26.318,350.452 26.503 M25.829 27.443 C 25.923 27.490,26.000 27.630,26.000 27.754 C 26.000 27.879,26.074 28.026,26.164 28.082 C 26.269 28.146,26.278 28.047,26.190 27.809 C 26.114 27.603,25.963 27.417,25.855 27.396 C 25.747 27.375,25.735 27.396,25.829 27.443 M369.418 27.665 C 369.349 27.776,369.413 27.970,369.562 28.101 C 369.709 28.231,369.793 28.286,369.748 28.224 C 369.703 28.161,369.790 27.973,369.942 27.805 C 370.107 27.623,370.141 27.500,370.026 27.500 C 369.920 27.500,369.832 27.594,369.831 27.708 C 369.829 27.862,369.790 27.857,369.685 27.691 C 369.576 27.519,369.512 27.513,369.418 27.665 M27.094 30.816 C 27.043 30.898,27.113 31.179,27.250 31.441 C 27.472 31.867,27.498 31.878,27.499 31.552 C 27.500 31.351,27.424 31.139,27.331 31.082 C 27.237 31.024,27.204 30.907,27.257 30.822 C 27.310 30.736,27.316 30.667,27.270 30.667 C 27.224 30.667,27.145 30.734,27.094 30.816 M352.511 31.750 C 352.512 32.044,352.988 32.773,352.994 32.490 C 352.997 32.347,352.890 32.085,352.755 31.907 C 352.621 31.729,352.511 31.658,352.511 31.750 M386.525 32.314 C 386.402 32.393,386.327 32.593,386.359 32.760 C 386.407 33.009,386.454 32.983,386.622 32.615 C 386.848 32.119,386.846 32.111,386.525 32.314 M353.070 33.055 C 353.123 33.223,353.167 33.429,353.167 33.514 C 353.167 33.598,353.242 33.667,353.333 33.667 C 353.575 33.667,353.538 33.444,353.236 33.074 C 352.995 32.777,352.981 32.776,353.070 33.055 M28.752 35.625 C 28.819 35.785,28.877 36.007,28.881 36.118 C 28.885 36.228,28.952 36.280,29.028 36.233 C 29.105 36.185,29.095 36.011,29.006 35.845 C 28.918 35.679,28.892 35.496,28.950 35.439 C 29.008 35.381,28.960 35.333,28.843 35.333 C 28.706 35.333,28.674 35.437,28.752 35.625 M29.170 36.958 C 29.172 37.027,29.322 37.271,29.503 37.500 L 29.832 37.917 29.650 37.375 C 29.490 36.900,29.160 36.614,29.170 36.958 M384.223 37.639 C 384.072 37.881,384.081 37.944,384.266 37.944 C 384.395 37.944,384.500 37.807,384.500 37.639 C 384.500 37.471,384.481 37.333,384.457 37.333 C 384.433 37.333,384.328 37.471,384.223 37.639 M383.986 38.433 C 383.774 38.690,383.627 39.167,383.760 39.167 C 383.796 39.167,383.941 38.942,384.083 38.667 C 384.368 38.116,384.328 38.021,383.986 38.433 M110.911 47.583 C 110.911 52.258,110.932 54.195,110.958 51.887 C 110.984 49.578,110.984 45.753,110.958 43.387 C 110.932 41.020,110.911 42.908,110.911 47.583 M355.500 39.397 C 355.500 39.534,355.575 39.693,355.667 39.750 C 355.758 39.807,355.833 39.741,355.833 39.603 C 355.833 39.466,355.758 39.307,355.667 39.250 C 355.575 39.193,355.500 39.259,355.500 39.397 M90.375 39.615 C 90.535 39.657,90.798 39.657,90.958 39.615 C 91.119 39.573,90.987 39.539,90.667 39.539 C 90.346 39.539,90.215 39.573,90.375 39.615 M383.213 40.208 C 382.894 40.621,382.830 40.812,382.981 40.905 C 383.065 40.957,383.213 40.775,383.308 40.500 C 383.496 39.962,383.468 39.878,383.213 40.208 M356.422 41.667 C 356.505 41.804,356.589 42.017,356.608 42.140 C 356.657 42.463,356.783 42.549,356.910 42.344 C 356.970 42.247,356.936 42.167,356.833 42.167 C 356.731 42.167,356.688 42.100,356.738 42.019 C 356.789 41.938,356.704 41.769,356.550 41.644 C 356.308 41.448,356.291 41.451,356.422 41.667 M382.125 42.923 C 381.691 43.503,381.443 44.214,381.707 44.122 C 381.822 44.082,381.895 43.925,381.868 43.774 C 381.841 43.623,381.901 43.500,382.003 43.500 C 382.104 43.500,382.140 43.425,382.083 43.333 C 382.027 43.242,382.052 43.167,382.139 43.167 C 382.288 43.167,382.561 42.669,382.462 42.576 C 382.437 42.552,382.285 42.708,382.125 42.923 M31.702 43.625 C 32.011 44.352,32.169 44.443,31.964 43.776 C 31.862 43.441,31.717 43.167,31.642 43.167 C 31.568 43.167,31.595 43.373,31.702 43.625 M358.273 46.495 C 358.434 46.767,358.591 46.964,358.622 46.933 C 358.723 46.832,358.285 46.000,358.130 46.000 C 358.048 46.000,358.113 46.223,358.273 46.495 M17.375 76.708 L 17.416 105.750 17.458 77.183 C 17.488 57.612,17.556 48.550,17.675 48.406 C 17.797 48.260,17.796 48.163,17.672 48.087 C 17.574 48.026,17.538 47.907,17.590 47.822 C 17.643 47.736,17.607 47.667,17.510 47.667 C 17.386 47.667,17.346 56.353,17.375 76.708 M17.904 49.432 C 18.040 49.867,18.104 49.930,18.184 49.706 C 18.242 49.547,18.223 49.392,18.143 49.361 C 18.063 49.330,18.035 49.244,18.081 49.170 C 18.127 49.096,18.066 48.997,17.946 48.951 C 17.771 48.884,17.762 48.980,17.904 49.432 M378.950 50.057 C 378.903 50.180,378.922 50.374,378.993 50.489 C 379.079 50.629,379.149 50.555,379.205 50.265 C 379.290 49.818,379.101 49.663,378.950 50.057 M34.000 50.125 C 34.000 50.205,34.109 50.415,34.242 50.593 C 34.475 50.905,34.480 50.903,34.388 50.539 C 34.293 50.163,34.000 49.850,34.000 50.125 M358.917 53.000 C 358.774 53.275,358.692 53.500,358.734 53.500 C 358.776 53.500,358.971 53.275,359.167 53.000 C 359.362 52.725,359.445 52.500,359.349 52.500 C 359.253 52.500,359.059 52.725,358.917 53.000 M379.336 53.625 C 379.341 53.899,379.657 54.232,379.783 54.097 C 379.856 54.019,379.822 53.921,379.707 53.880 C 379.592 53.839,379.540 53.736,379.592 53.652 C 379.644 53.569,379.607 53.500,379.510 53.500 C 379.413 53.500,379.334 53.556,379.336 53.625 M35.568 54.590 C 35.667 54.907,35.801 55.167,35.865 55.167 C 36.006 55.167,35.687 54.199,35.511 54.090 C 35.443 54.048,35.469 54.273,35.568 54.590 M357.750 55.500 C 357.687 55.697,357.674 55.896,357.720 55.942 C 357.765 55.988,357.854 55.864,357.917 55.667 C 357.979 55.470,357.993 55.271,357.947 55.225 C 357.901 55.179,357.813 55.303,357.750 55.500 M208.293 74.431 L 208.336 93.497 200.126 93.542 L 191.917 93.587 200.208 93.627 L 208.500 93.667 208.500 74.593 C 208.500 64.103,208.444 55.485,208.375 55.442 C 208.306 55.400,208.269 63.945,208.293 74.431 M104.000 56.093 C 104.138 56.124,105.787 56.174,107.667 56.206 C 109.546 56.238,110.783 56.209,110.417 56.142 C 109.784 56.026,103.474 55.978,104.000 56.093 M36.247 56.452 C 36.274 56.772,36.791 57.833,36.920 57.833 C 37.012 57.833,36.499 56.473,36.336 56.286 C 36.273 56.214,36.233 56.289,36.247 56.452 M94.581 56.338 C 94.520 56.436,94.857 56.500,95.435 56.500 C 95.959 56.500,96.358 56.473,96.319 56.440 C 96.134 56.280,94.670 56.194,94.581 56.338 M96.750 56.329 C 96.537 56.409,96.764 56.455,97.378 56.456 C 97.907 56.457,98.371 56.408,98.409 56.346 C 98.505 56.190,97.157 56.177,96.750 56.329 M99.875 56.289 C 100.310 56.324,101.023 56.324,101.458 56.289 C 101.894 56.255,101.537 56.227,100.667 56.227 C 99.796 56.227,99.440 56.255,99.875 56.289 M91.795 56.454 C 92.094 56.491,92.544 56.490,92.795 56.452 C 93.045 56.414,92.800 56.384,92.250 56.385 C 91.700 56.386,91.495 56.417,91.795 56.454 M37.024 58.674 C 37.212 59.037,37.395 59.333,37.428 59.333 C 37.514 59.333,37.310 58.787,37.142 58.568 C 37.066 58.468,37.043 58.346,37.092 58.297 C 37.141 58.248,37.068 58.165,36.931 58.112 C 36.735 58.037,36.755 58.160,37.024 58.674 M356.227 59.296 C 356.288 59.396,356.267 59.521,356.180 59.575 C 355.968 59.706,355.478 60.700,355.576 60.799 C 355.619 60.841,355.746 60.660,355.859 60.397 C 355.972 60.133,356.167 59.793,356.293 59.642 C 356.470 59.429,356.476 59.338,356.318 59.241 C 356.193 59.163,356.158 59.185,356.227 59.296 M381.708 59.716 C 381.708 59.961,381.774 60.120,381.854 60.070 C 381.934 60.021,382.000 60.072,382.000 60.185 C 382.000 60.297,382.043 60.346,382.096 60.293 C 382.149 60.240,382.084 59.988,381.951 59.734 L 381.708 59.272 381.708 59.716 M382.000 60.648 C 382.000 60.729,382.110 61.047,382.243 61.356 C 382.485 61.913,382.487 61.914,382.493 61.458 C 382.497 61.206,382.427 61.000,382.339 61.000 C 382.250 61.000,382.220 60.887,382.273 60.750 C 382.326 60.612,382.286 60.500,382.184 60.500 C 382.083 60.500,382.000 60.566,382.000 60.648 M355.224 61.257 C 355.074 61.648,355.236 61.694,355.466 61.326 C 355.595 61.120,355.606 61.000,355.496 61.000 C 355.401 61.000,355.278 61.116,355.224 61.257 M22.833 63.892 C 22.833 64.148,23.230 65.000,23.350 65.000 C 23.584 65.000,23.526 64.550,23.258 64.282 C 23.125 64.149,23.062 63.993,23.119 63.937 C 23.176 63.880,23.135 63.833,23.028 63.833 C 22.921 63.833,22.833 63.860,22.833 63.892 M353.917 64.500 C 353.973 64.592,353.936 64.667,353.833 64.667 C 353.731 64.667,353.698 64.750,353.761 64.851 C 353.840 64.980,353.918 64.967,354.018 64.809 C 354.212 64.503,354.202 64.333,353.990 64.333 C 353.893 64.333,353.860 64.408,353.917 64.500 M383.783 65.272 C 383.674 65.382,384.020 66.000,384.191 66.000 C 384.331 66.000,384.169 65.354,384.003 65.252 C 383.935 65.210,383.836 65.219,383.783 65.272 M352.917 66.667 C 352.774 66.942,352.728 67.167,352.813 67.167 C 352.898 67.167,353.046 66.942,353.142 66.667 C 353.238 66.392,353.284 66.167,353.246 66.167 C 353.207 66.167,353.059 66.392,352.917 66.667 M384.110 66.425 C 384.161 66.558,384.269 66.667,384.351 66.667 C 384.433 66.667,384.500 66.775,384.500 66.907 C 384.500 67.039,384.572 67.191,384.660 67.246 C 384.757 67.306,384.752 67.150,384.648 66.852 C 384.554 66.582,384.373 66.320,384.247 66.272 C 384.097 66.214,384.049 66.268,384.110 66.425 M351.694 69.424 C 351.587 69.658,351.503 69.939,351.507 70.050 C 351.510 70.160,351.624 69.995,351.759 69.683 C 352.044 69.027,351.984 68.788,351.694 69.424 M385.167 69.125 C 385.167 69.229,385.243 69.361,385.336 69.418 C 385.429 69.476,385.462 69.593,385.410 69.678 C 385.357 69.764,385.393 69.833,385.490 69.833 C 385.730 69.833,385.704 69.647,385.411 69.260 C 385.277 69.082,385.167 69.021,385.167 69.125 M350.387 72.276 C 350.448 72.337,350.404 72.499,350.290 72.637 C 350.121 72.842,350.129 72.873,350.333 72.805 C 350.642 72.703,350.769 72.167,350.484 72.167 C 350.371 72.167,350.327 72.216,350.387 72.276 M368.648 74.375 C 368.539 74.581,368.368 74.805,368.267 74.872 C 368.139 74.958,368.145 74.996,368.287 74.997 C 368.400 74.999,368.608 74.775,368.750 74.500 C 368.892 74.225,368.972 74.000,368.927 74.000 C 368.882 74.000,368.756 74.169,368.648 74.375 M349.186 75.111 C 349.175 75.218,349.118 75.443,349.059 75.611 C 348.975 75.848,348.997 75.874,349.158 75.726 C 349.272 75.621,349.329 75.396,349.285 75.226 C 349.241 75.056,349.197 75.004,349.186 75.111 M26.833 75.458 C 26.833 75.562,26.910 75.694,27.003 75.752 C 27.096 75.809,27.129 75.926,27.076 76.012 C 27.023 76.097,27.060 76.167,27.157 76.167 C 27.396 76.167,27.371 75.980,27.078 75.593 C 26.943 75.415,26.833 75.355,26.833 75.458 M27.667 77.980 C 27.667 78.164,27.742 78.360,27.833 78.417 C 27.925 78.473,28.000 78.370,28.000 78.186 C 28.000 78.003,27.925 77.807,27.833 77.750 C 27.742 77.693,27.667 77.797,27.667 77.980 M347.794 78.412 C 347.750 78.638,347.770 78.789,347.837 78.748 C 348.016 78.637,348.158 78.000,348.004 78.000 C 347.931 78.000,347.837 78.185,347.794 78.412 M271.477 78.982 C 271.684 79.113,272.333 79.049,272.333 78.897 C 272.333 78.862,272.090 78.834,271.792 78.836 C 271.423 78.838,271.323 78.884,271.477 78.982 M273.333 78.958 C 273.333 79.027,273.596 79.090,273.917 79.098 C 274.237 79.106,274.500 79.050,274.500 78.973 C 274.500 78.896,274.237 78.833,273.917 78.833 C 273.596 78.833,273.333 78.890,273.333 78.958 M389.167 79.333 C 389.265 79.517,389.302 79.667,389.249 79.667 C 389.197 79.667,389.250 79.772,389.368 79.900 C 389.487 80.028,389.608 80.110,389.637 80.082 C 389.710 80.014,389.181 79.000,389.073 79.000 C 389.026 79.000,389.069 79.150,389.167 79.333 M280.000 79.319 C 280.000 79.402,280.131 79.450,280.292 79.425 C 280.452 79.400,280.752 79.442,280.958 79.519 C 281.165 79.596,281.333 79.594,281.333 79.515 C 281.333 79.361,280.766 79.173,280.292 79.169 C 280.131 79.168,280.000 79.235,280.000 79.319 M282.000 79.475 C 282.000 79.541,282.150 79.607,282.333 79.621 C 282.517 79.635,282.667 79.592,282.667 79.525 C 282.667 79.459,282.517 79.393,282.333 79.379 C 282.150 79.365,282.000 79.408,282.000 79.475 M370.904 79.589 C 370.978 79.769,371.076 80.048,371.122 80.208 C 371.168 80.369,371.315 80.500,371.448 80.500 C 371.651 80.500,371.648 80.457,371.427 80.237 C 371.282 80.092,371.194 79.923,371.231 79.862 C 371.268 79.800,371.179 79.640,371.034 79.505 C 370.798 79.287,370.784 79.296,370.904 79.589 M118.244 87.833 C 118.244 92.371,118.265 94.227,118.292 91.958 C 118.318 89.690,118.318 85.977,118.292 83.708 C 118.265 81.440,118.244 83.296,118.244 87.833 M286.300 79.867 C 286.456 80.022,286.544 80.022,286.700 79.867 C 286.856 79.711,286.811 79.667,286.500 79.667 C 286.189 79.667,286.144 79.711,286.300 79.867 M287.734 79.867 C 287.894 79.957,288.116 79.951,288.292 79.852 C 288.526 79.720,288.474 79.691,288.025 79.703 C 287.605 79.715,287.533 79.755,287.734 79.867 M111.583 80.000 C 112.039 80.196,112.167 80.196,112.167 80.000 C 112.167 79.908,111.960 79.839,111.708 79.845 C 111.302 79.855,111.288 79.873,111.583 80.000 M28.452 80.336 C 28.581 80.829,28.799 80.894,28.706 80.412 C 28.663 80.185,28.569 80.000,28.496 80.000 C 28.424 80.000,28.404 80.151,28.452 80.336 M110.417 80.167 C 110.295 80.364,110.458 80.364,110.917 80.167 C 111.238 80.029,111.237 80.023,110.885 80.012 C 110.684 80.005,110.473 80.075,110.417 80.167 M294.958 80.277 C 295.121 80.343,295.167 82.158,295.167 88.564 C 295.167 94.897,295.119 96.817,294.958 96.987 C 294.790 97.166,294.798 97.194,295.000 97.132 C 295.417 97.005,295.460 80.161,295.043 80.180 C 294.869 80.188,294.834 80.227,294.958 80.277 M103.500 80.399 C 103.500 80.561,103.970 80.621,104.182 80.487 C 104.353 80.379,104.292 80.338,103.958 80.336 C 103.706 80.334,103.500 80.363,103.500 80.399 M99.000 80.798 C 99.000 80.870,99.150 80.929,99.333 80.929 C 99.517 80.929,99.667 80.870,99.667 80.798 C 99.667 80.726,99.517 80.667,99.333 80.667 C 99.150 80.667,99.000 80.726,99.000 80.798 M90.167 81.333 L 89.750 81.467 90.208 81.483 C 90.460 81.493,90.667 81.425,90.667 81.333 C 90.667 81.242,90.648 81.174,90.625 81.183 C 90.602 81.192,90.396 81.260,90.167 81.333 M92.375 81.282 C 92.535 81.323,92.798 81.323,92.958 81.282 C 93.119 81.240,92.987 81.205,92.667 81.205 C 92.346 81.205,92.215 81.240,92.375 81.282 M88.875 81.448 C 89.035 81.490,89.298 81.490,89.458 81.448 C 89.619 81.406,89.487 81.372,89.167 81.372 C 88.846 81.372,88.715 81.406,88.875 81.448 M390.000 81.718 C 390.000 81.838,390.111 82.082,390.248 82.260 C 390.474 82.556,390.480 82.537,390.315 82.042 C 390.126 81.476,390.000 81.346,390.000 81.718 M345.535 83.505 C 345.424 83.683,345.336 83.924,345.340 84.039 C 345.344 84.155,345.462 84.037,345.603 83.777 C 345.896 83.237,345.841 83.016,345.535 83.505 M364.611 83.611 C 364.550 83.672,364.505 83.878,364.511 84.069 C 364.520 84.389,364.534 84.385,364.681 84.017 C 364.844 83.609,364.810 83.412,364.611 83.611 M364.157 84.250 C 364.105 84.828,363.964 85.253,363.787 85.365 C 363.645 85.456,363.672 85.496,363.875 85.497 C 364.046 85.499,364.167 85.376,364.167 85.200 C 364.167 85.035,364.239 84.828,364.326 84.740 C 364.427 84.640,364.428 84.488,364.329 84.332 C 364.242 84.195,364.165 84.158,364.157 84.250 M345.058 84.591 C 344.902 84.995,345.119 85.068,345.326 84.681 C 345.455 84.440,345.457 84.333,345.334 84.333 C 345.236 84.333,345.112 84.449,345.058 84.591 M30.656 86.647 C 30.884 87.073,30.985 87.099,30.929 86.717 C 30.906 86.562,30.793 86.403,30.678 86.365 C 30.514 86.310,30.509 86.373,30.656 86.647 M392.066 87.083 C 392.166 87.404,392.298 87.667,392.359 87.667 C 392.419 87.667,392.388 87.404,392.290 87.083 C 392.191 86.763,392.060 86.500,391.997 86.500 C 391.934 86.500,391.965 86.763,392.066 87.083 M343.117 88.917 C 342.871 89.433,342.868 89.500,343.096 89.500 C 343.237 89.500,343.308 89.427,343.253 89.338 C 343.198 89.249,343.277 88.986,343.429 88.755 C 343.581 88.523,343.635 88.333,343.550 88.333 C 343.465 88.333,343.270 88.596,343.117 88.917 M392.729 88.989 C 392.932 89.678,393.202 90.103,393.093 89.564 C 393.005 89.129,392.690 88.333,392.605 88.333 C 392.567 88.333,392.622 88.628,392.729 88.989 M362.116 89.292 C 361.957 89.576,361.831 90.413,361.986 90.162 C 362.072 90.021,362.167 89.796,362.196 89.662 C 362.226 89.527,362.325 89.362,362.417 89.294 C 362.521 89.217,362.510 89.171,362.385 89.169 C 362.276 89.168,362.155 89.223,362.116 89.292 M31.854 90.000 C 31.851 90.138,31.951 90.475,32.077 90.750 C 32.372 91.394,32.376 91.094,32.083 90.333 C 31.960 90.013,31.856 89.862,31.854 90.000 M393.833 91.718 C 393.833 91.838,393.945 92.082,394.081 92.260 C 394.308 92.556,394.313 92.537,394.148 92.042 C 393.959 91.476,393.833 91.346,393.833 91.718 M376.106 93.083 C 376.159 93.221,376.269 93.333,376.351 93.333 C 376.433 93.333,376.500 93.221,376.500 93.083 C 376.500 92.946,376.390 92.833,376.255 92.833 C 376.106 92.833,376.048 92.931,376.106 93.083 M340.611 94.596 C 340.284 95.281,340.277 95.333,340.510 95.333 C 340.607 95.333,340.640 95.258,340.583 95.167 C 340.527 95.075,340.572 95.000,340.685 95.000 C 340.797 95.000,340.839 94.950,340.777 94.889 C 340.716 94.827,340.783 94.647,340.927 94.488 C 341.071 94.330,341.121 94.158,341.038 94.107 C 340.956 94.056,340.763 94.276,340.611 94.596 M148.271 94.632 C 148.226 94.706,148.462 94.785,148.796 94.808 C 149.465 94.853,149.455 94.697,148.781 94.575 C 148.547 94.532,148.317 94.558,148.271 94.632 M151.083 94.667 C 150.790 94.793,150.806 94.811,151.218 94.822 C 151.490 94.828,151.643 94.764,151.583 94.667 C 151.527 94.575,151.466 94.505,151.448 94.512 C 151.431 94.518,151.267 94.588,151.083 94.667 M160.049 94.624 C 160.671 94.656,161.646 94.656,162.215 94.623 C 162.784 94.591,162.275 94.564,161.083 94.565 C 159.892 94.565,159.426 94.592,160.049 94.624 M253.167 94.844 C 253.167 94.930,253.404 95.000,253.694 95.000 C 254.309 95.000,254.273 94.889,253.621 94.771 C 253.371 94.726,253.167 94.759,253.167 94.844 M255.333 95.036 C 255.333 95.108,255.483 95.167,255.667 95.167 C 255.850 95.167,256.000 95.108,256.000 95.036 C 256.000 94.964,255.850 94.905,255.667 94.905 C 255.483 94.905,255.333 94.964,255.333 95.036 M257.500 95.003 C 257.111 95.130,257.119 95.138,257.613 95.118 C 257.905 95.107,258.107 95.038,258.062 94.965 C 258.017 94.893,257.966 94.841,257.948 94.850 C 257.931 94.859,257.729 94.928,257.500 95.003 M264.333 95.344 C 264.333 95.430,264.483 95.500,264.667 95.500 C 264.850 95.500,265.000 95.441,265.000 95.369 C 265.000 95.297,264.850 95.226,264.667 95.212 C 264.483 95.199,264.333 95.258,264.333 95.344 M266.514 95.395 C 266.684 95.545,267.833 95.667,267.833 95.535 C 267.833 95.454,267.521 95.376,267.139 95.361 C 266.757 95.346,266.476 95.361,266.514 95.395 M268.150 95.550 C 268.227 95.627,268.544 95.665,268.854 95.633 C 269.403 95.576,269.399 95.573,268.713 95.492 C 268.325 95.446,268.072 95.472,268.150 95.550 M270.547 95.634 C 270.431 95.708,270.645 95.771,271.047 95.783 C 271.566 95.797,271.663 95.766,271.417 95.663 C 270.985 95.482,270.796 95.476,270.547 95.634 M33.773 95.917 C 33.826 96.054,33.936 96.167,34.018 96.167 C 34.100 96.167,34.167 96.054,34.167 95.917 C 34.167 95.779,34.057 95.667,33.922 95.667 C 33.773 95.667,33.715 95.764,33.773 95.917 M272.625 95.787 C 272.923 95.824,273.410 95.824,273.708 95.787 C 274.006 95.750,273.762 95.720,273.167 95.720 C 272.571 95.720,272.327 95.750,272.625 95.787 M113.917 96.333 C 113.623 96.459,113.640 96.478,114.052 96.488 C 114.324 96.495,114.477 96.430,114.417 96.333 C 114.360 96.242,114.299 96.172,114.282 96.178 C 114.264 96.185,114.100 96.255,113.917 96.333 M395.627 96.588 C 395.670 96.815,395.765 97.000,395.837 97.000 C 395.992 97.000,395.850 96.363,395.671 96.252 C 395.603 96.211,395.584 96.362,395.627 96.588 M34.091 96.708 C 34.272 97.307,34.451 97.391,34.370 96.839 C 34.329 96.561,34.224 96.333,34.137 96.333 C 34.049 96.333,34.029 96.502,34.091 96.708 M286.833 96.523 C 286.833 96.602,287.021 96.667,287.250 96.667 C 287.479 96.667,287.667 96.638,287.667 96.603 C 287.667 96.568,287.479 96.503,287.250 96.459 C 287.021 96.415,286.833 96.444,286.833 96.523 M377.772 97.333 C 378.109 98.242,378.256 98.427,378.424 98.155 C 378.501 98.031,378.483 97.991,378.379 98.055 C 378.283 98.114,378.166 97.961,378.114 97.706 C 378.063 97.455,377.902 97.100,377.757 96.917 C 377.527 96.625,377.529 96.676,377.772 97.333 M101.026 97.344 C 100.812 97.430,100.568 97.459,100.485 97.407 C 100.401 97.356,100.333 97.393,100.333 97.490 C 100.333 97.747,100.884 97.706,101.260 97.422 C 101.631 97.141,101.577 97.123,101.026 97.344 M98.417 97.667 C 98.111 97.798,98.118 97.811,98.500 97.819 C 98.729 97.824,99.029 97.756,99.167 97.667 C 99.495 97.455,98.910 97.455,98.417 97.667 M96.422 97.825 C 96.368 97.912,96.485 97.952,96.685 97.913 C 97.183 97.817,97.296 97.667,96.871 97.667 C 96.678 97.667,96.476 97.738,96.422 97.825 M92.067 98.194 C 91.987 98.322,92.800 98.255,92.933 98.123 C 92.982 98.074,92.822 98.045,92.578 98.059 C 92.335 98.072,92.105 98.133,92.067 98.194 M90.875 98.282 C 91.035 98.323,91.298 98.323,91.458 98.282 C 91.619 98.240,91.487 98.205,91.167 98.205 C 90.846 98.205,90.715 98.240,90.875 98.282 M357.855 99.242 C 357.660 99.657,357.504 100.091,357.510 100.207 C 357.515 100.322,357.703 100.011,357.928 99.516 C 358.153 99.020,358.308 98.586,358.273 98.551 C 358.238 98.516,358.050 98.827,357.855 99.242 M378.336 98.534 C 378.331 98.778,378.727 99.500,378.866 99.500 C 379.004 99.500,378.885 99.221,378.508 98.667 C 378.415 98.529,378.337 98.469,378.336 98.534 M338.601 99.098 C 338.467 99.447,338.473 99.500,338.649 99.500 C 338.857 99.500,339.016 99.030,338.844 98.923 C 338.765 98.875,338.656 98.953,338.601 99.098 M35.105 99.583 C 35.211 100.092,35.437 100.453,35.565 100.322 C 35.605 100.282,35.493 99.987,35.318 99.667 C 35.001 99.085,35.000 99.085,35.105 99.583 M76.132 99.359 C 75.990 99.448,76.073 99.496,76.375 99.497 C 76.627 99.499,76.833 99.438,76.833 99.361 C 76.833 99.183,76.410 99.182,76.132 99.359 M324.604 99.366 C 324.649 99.440,324.919 99.500,325.204 99.500 C 325.489 99.500,325.678 99.455,325.623 99.401 C 325.470 99.248,324.510 99.215,324.604 99.366 M72.583 99.667 C 72.288 99.794,72.302 99.811,72.708 99.822 C 72.960 99.828,73.167 99.758,73.167 99.667 C 73.167 99.471,73.039 99.471,72.583 99.667 M378.833 99.834 C 378.833 100.136,379.163 100.667,379.351 100.667 C 379.446 100.667,379.405 100.548,379.260 100.403 C 379.115 100.258,379.036 100.076,379.085 99.998 C 379.133 99.920,379.096 99.809,379.003 99.752 C 378.910 99.694,378.833 99.731,378.833 99.834 M338.245 100.175 C 338.086 100.431,338.303 100.597,338.517 100.383 C 338.637 100.263,338.640 100.170,338.526 100.099 C 338.433 100.042,338.306 100.076,338.245 100.175 M340.868 100.642 C 340.730 100.729,340.868 100.787,341.249 100.801 C 341.599 100.814,341.805 100.756,341.747 100.662 C 341.626 100.465,341.162 100.455,340.868 100.642 M356.645 101.875 C 356.552 102.057,356.572 102.642,356.670 102.582 C 356.862 102.462,356.987 101.833,356.818 101.833 C 356.735 101.833,356.657 101.852,356.645 101.875 M46.458 102.115 C 46.298 102.157,46.167 102.254,46.167 102.330 C 46.167 102.406,46.317 102.430,46.500 102.382 C 46.683 102.334,46.833 102.228,46.833 102.147 C 46.833 102.066,46.815 102.009,46.792 102.019 C 46.769 102.030,46.619 102.073,46.458 102.115 M41.333 102.833 C 41.333 102.925,41.441 103.000,41.573 103.000 C 41.706 103.000,41.860 102.925,41.917 102.833 C 41.973 102.742,41.865 102.667,41.677 102.667 C 41.488 102.667,41.333 102.742,41.333 102.833 M397.917 102.833 C 397.860 102.925,397.893 103.000,397.990 103.000 C 398.087 103.000,398.167 103.108,398.167 103.240 C 398.167 103.372,398.239 103.525,398.327 103.579 C 398.421 103.638,398.415 103.472,398.310 103.172 C 398.119 102.622,398.072 102.582,397.917 102.833 M380.622 104.682 C 380.740 105.132,381.000 105.255,381.000 104.861 C 381.000 104.682,380.896 104.496,380.769 104.447 C 380.606 104.385,380.563 104.454,380.622 104.682 M399.249 106.168 C 399.192 106.260,399.263 106.453,399.406 106.597 C 399.549 106.740,399.667 106.960,399.667 107.085 C 399.667 107.211,399.738 107.358,399.825 107.411 C 399.912 107.465,399.867 107.170,399.726 106.755 C 399.453 105.953,399.413 105.904,399.249 106.168 M8.251 106.832 C 8.191 106.928,8.327 106.983,8.574 106.963 C 8.808 106.943,9.000 106.869,9.000 106.797 C 9.000 106.607,8.371 106.637,8.251 106.832 M392.074 106.922 C 392.251 107.057,392.551 107.177,392.740 107.190 C 392.929 107.203,393.333 107.235,393.639 107.260 C 394.345 107.318,394.218 107.171,393.476 107.070 C 392.515 106.941,392.346 106.902,392.227 106.783 C 392.163 106.719,392.030 106.669,391.931 106.672 C 391.831 106.675,391.896 106.787,392.074 106.922 M4.942 107.375 C 4.985 107.444,5.165 107.500,5.343 107.500 C 5.521 107.500,5.667 107.444,5.667 107.375 C 5.667 107.306,5.486 107.250,5.266 107.250 C 5.046 107.250,4.900 107.306,4.942 107.375 M3.083 107.667 L 2.417 107.786 3.032 107.810 C 3.370 107.823,3.693 107.758,3.750 107.667 C 3.807 107.575,3.830 107.511,3.802 107.524 C 3.773 107.537,3.450 107.601,3.083 107.667 M1.240 107.911 C 1.062 108.046,1.006 108.158,1.115 108.161 C 1.224 108.164,1.361 108.090,1.418 107.997 C 1.476 107.904,1.604 107.878,1.704 107.940 C 1.812 108.006,1.837 107.974,1.766 107.859 C 1.617 107.619,1.629 107.617,1.240 107.911 M398.054 107.881 C 397.996 107.975,398.030 108.001,398.129 107.940 C 398.229 107.878,398.357 107.904,398.415 107.997 C 398.544 108.205,399.000 108.223,399.000 108.019 C 399.000 107.803,398.177 107.683,398.054 107.881 " stroke="none" fill="#dc1c1c" fill-rule="evenodd"></path><path id="path3" d="M55.082 50.583 C 55.082 78.450,55.101 89.875,55.125 75.972 C 55.149 62.069,55.149 39.269,55.125 25.305 C 55.101 11.341,55.082 22.717,55.082 50.583 M94.542 39.448 C 94.702 39.490,94.965 39.490,95.125 39.448 C 95.285 39.406,95.154 39.372,94.833 39.372 C 94.513 39.372,94.381 39.406,94.542 39.448 " stroke="none" fill="#e01c24" fill-rule="evenodd"></path><path id="path4" d="M55.082 50.583 C 55.082 78.450,55.101 89.875,55.125 75.972 C 55.149 62.069,55.149 39.269,55.125 25.305 C 55.101 11.341,55.082 22.717,55.082 50.583 M94.542 39.448 C 94.702 39.490,94.965 39.490,95.125 39.448 C 95.285 39.406,95.154 39.372,94.833 39.372 C 94.513 39.372,94.381 39.406,94.542 39.448 " stroke="none" fill="#e01c24" fill-rule="evenodd"></path></g></svg>